<?xml version="1.0" standalone="no"?>
<svg version="1.1" id="Layer_1_99_" xmlns="http://www.w3.org/2000/svg" xmlns:xlink="http://www.w3.org/1999/xlink" x="0px" y="0px" viewBox="0 0 595.276 595.276" enable-background="new 0 0 595.276 595.276" xml:space="preserve">
<path id="color_x5F_6" fill-rule="evenodd" clip-rule="evenodd" fill="#f5a623" d="M321.455,371.292
	c-2.247,11.589,1.07,25.64,5.905,37.845c4.897,12.362,11.315,22.792,15.303,26.879c0.279,0.286,0.362,0.478,0.375,0.544
	c0.013,0.065,0.015,0.022-0.008,0.047c-0.041,0.045-0.242,0.121-0.273,0.132l-125.364-0.786v-14.383l1.473,0.014
	c-0.092,0.388-0.095,0.8,0.013,1.206c0.304,1.137,1.358,1.926,2.56,1.951c8.86,0.184,22.697,0.473,29.108,0.606
	c1.025,0.022,2.012-0.368,2.725-1.081c0.001,0,0.001,0,0.002,0c0.635-0.636,0.977-1.482,0.993-2.362l50.589,0.458
	c0.001,0,0.003,0,0.005,0c0.275,0,0.499-0.226,0.499-0.499v-50.639h16.107L321.455,371.292z M170.238,410.474
	c4.187,0,7.569,3.383,7.569,7.569c0,4.186-3.382,7.569-7.569,7.569c-4.186,0-7.569-3.383-7.569-7.569
	C162.669,413.857,166.052,410.474,170.238,410.474z M203.824,371.257c13.732,6.678,22.806,21.592,22.806,39.7
	c0,1.174-0.31,4.039-0.402,5.299c-0.004,0.03-0.004,0.061-0.002,0.092c-1.802,1.143-6.262,3.678-6.361,3.748
	c0.003-0.018,0.359-4.013,0.359-6.043c0-19.817-11.372-36.671-27.172-42.573C196.726,371.407,200.041,371.339,203.824,371.257z
	 M122.115,296.516h9.974v1.309c0,0.022,0.001,0.044,0.004,0.066c0.206,1.556,1.496,2.628,3.121,3.273
	c1.624,0.645,3.648,0.918,5.614,0.878c1.967-0.039,3.873-0.387,5.281-1.065c0.704-0.34,1.291-0.764,1.678-1.315
	c0.368-0.523,0.515-1.18,0.381-1.853l0.015-1.293h62.711c12.398,0.001,22.35,7.982,22.35,17.668c0,0-0.301,44.323-0.452,55.555
	c-0.098-0.12-0.247-0.188-0.402-0.183c-5.878,0.185-58.959,1.312-63.908,1.312c-21.304-1.118-40.29,13.365-44.838,34.21
	c-0.001,0.002-0.001,0.004-0.002,0.006c-0.364,1.758-0.848,3.193-1.434,4.142c-0.585,0.948-1.2,1.378-1.951,1.378
	c-0.005,0-0.182-0.002-0.512-0.007c-10.326-0.143-18.593-8.583-18.52-18.909v-0.002c0.112-12.344,0.238-26.521,0.238-28.983v-48.521
	C101.461,304.473,110.671,296.517,122.115,296.516z M409.58,363.103c7.314,0.223,13.049,6.229,12.83,13.423
	c-0.219,7.193-6.308,12.84-13.622,12.618c-7.314-0.223-13.047-6.229-12.828-13.423C396.179,368.528,402.266,362.881,409.58,363.103z
	 M256.295,355.582c0.631,0.135,13.591,2.892,29.032,4.419c-0.794,0.586-1.318,1.52-1.318,2.579v1.798l-28.107-0.44L256.295,355.582z
	 M410.644,278.557c1.537,0,3.09,0.023,4.66,0.071c50.162,1.527,80.664,38.918,90.173,68.957c0.365,1.152,0.126,2.225-0.486,3.111
	c-0.611,0.886-1.61,1.563-2.723,1.822c-1.114,0.259-2.33,0.113-3.443-0.633c-1.114-0.747-2.14-2.113-2.79-4.37
	c-9.831-34.169-42.775-59.86-82.584-61.073c-31.2-0.95-59.101,13.367-75.435,35.734c-0.077,0.061-0.135,0.142-0.166,0.235
	c-4.43,6.11-8.005,12.81-10.544,19.966c-1.57,4.423-4.102,5.805-5.915,5.614c-0.906-0.095-1.66-0.572-2.118-1.33
	c-0.458-0.758-0.626-1.811-0.254-3.09C331.198,301.731,362.991,278.573,410.644,278.557z M202.15,347.096
	c1.03-0.001,1.873-0.846,1.873-1.875v-2.753c0-1.03-0.843-1.875-1.873-1.875h-70.149c-1.029,0-1.875,0.845-1.875,1.875v2.753
	c0,1.03,0.846,1.875,1.875,1.875H202.15z M202.15,337.018c1.03,0,1.873-0.846,1.873-1.875v-2.753c0-1.03-0.843-1.875-1.873-1.875
	h-70.149c-1.029,0-1.875,0.845-1.875,1.875v2.753c0,1.03,0.846,1.875,1.875,1.875H202.15z M202.15,326.333
	c1.03,0,1.873-0.845,1.873-1.874v-2.751c0-1.03-0.843-1.875-1.873-1.875h-70.149c-1.029,0-1.875,0.845-1.875,1.875v2.751
	c0,1.03,0.846,1.874,1.875,1.874H202.15z"></path>
<path id="color_x5F_5" fill-rule="evenodd" clip-rule="evenodd" fill="#FFD2BB" d="M235.142,271.782
	c0.231-0.049,1.138-0.059,1.355-0.017c1.305,0.247,2.395,1.249,2.692,2.631c0,0,1.644,7.326,1.774,7.396
	c0,0,38.543,20.232,38.699,20.087c0.768-0.716,4.504-5.306,4.724-5.581c3.116,6.648,6.603,10.87,12.955,12.749
	c-2.568,3.094-8.957,11.771-16.157,12.502c-2.065,0.21-6.293-2.758-7.941-3.645c-3.296-1.775-48.274-28.969-48.389-28.944
	c-1.843,0.397-3.651-0.771-4.048-2.615l-1.642-7.639c-0.396-1.845,0.77-3.652,2.614-4.048L235.142,271.782z M241.082,270.049
	c4.776-0.302,7.708,5.021,7.708,5.021c0.051,0.1,30.779,11.644,30.897,11.426l6.015-10.954c-0.502,5.337-1.809,19.708-1.791,19.749
	c-0.323,0.406-4.024,4.919-4.707,5.595l-21.456-11.347l1.361-2.934c0-0.001,0-0.001,0-0.002c0.572-1.24,0.027-2.724-1.214-3.297
	l-17.163-7.923c-0.076-0.036-0.292-0.042-0.316-0.037l-0.25-1.158c-0.383-1.779-1.802-3.078-3.488-3.402
	C236.622,270.775,238.78,270.194,241.082,270.049z M279.91,234.543l19.552,1.852l0.074,3.525c0.006,0.27,0.23,0.489,0.499,0.489
	c0.075,0,0.712-0.279,1.364-0.254c0.652,0.026,1.413,0.258,2.07,1.385h-0.002c0.304,0.522,0.32,0.947,0.197,1.373
	c-0.122,0.426-0.412,0.849-0.766,1.216c-0.508,0.526-1.881,1.46-1.881,1.648c0,0.26,6.457,0.939,6.457,0.939l3.449,5.13
	c0.032,0.052,0.074,0.097,0.123,0.133l0.082,6.126c-2.77,0.486-6.25,1.283-9.74,2.401c-2.127,0.682-4.233,1.495-6.197,2.415
	c0.089-0.102,0.134-0.236,0.123-0.371l-0.336-5.518c-0.017-0.27-0.249-0.479-0.519-0.468l-1.455,0.057
	c-3.303,0.128-6.515-1.041-8.928-3.244c-1.149-1.05-2.151-2.916-2.853-4.932c-0.7-2.015-1.11-4.18-1.167-5.801
	C279.942,239.343,279.907,236.654,279.91,234.543z"></path>
<path id="color_x5F_4" fill-rule="evenodd" clip-rule="evenodd" fill="#7ed321" d="M304.362,371.225v50.136l-50.151-0.454
	c-0.173-1.834-0.63-5.607-0.706-8.735c0.084-0.087,0.134-0.203,0.14-0.324l2.21-46.912l28.154,0.44v2.634
	c0,1.77,1.447,3.215,3.216,3.215H304.362z M232.783,370.382c-0.252,18.639-0.562,41.687-0.565,41.887
	c-0.275,0.206-2.102,1.563-4.935,3.406c0.119-1.364,0.347-3.544,0.347-4.717c0-17.714-8.55-32.526-21.722-39.747
	c10.645-0.234,20.952-0.48,26.513-0.655L232.783,370.382z M326.591,370.226h-39.366c-1.229,0-2.217-0.988-2.217-2.216v-5.43
	c0-1.229,0.989-2.218,2.217-2.218h2.144c6.175,0.501,12.593,0.77,18.682,0.561c3.661-0.125,6.681-0.298,9.247-0.561h14.761
	c-0.322,1.497-0.612,3.001-0.843,4.516c0,0-4.104,0.467-4.135,0.7C326.87,367.122,326.711,368.673,326.591,370.226z
	 M332.272,359.362h-9.042c0.564-0.152,1.102-0.313,1.598-0.493c3.519-1.284,5.406-3.429,6.9-6.742l0.045-0.2l2.178,1.254
	C333.304,355.219,332.747,357.281,332.272,359.362z M365.126,299.368v12.63c-0.933,0.62-1.858,1.254-2.764,1.914l-2.798-2.374
	c-0.178-0.151-0.438-0.158-0.624-0.018c-4.535,3.41-8.701,7.271-12.432,11.524c-0.157,0.179-0.165,0.445-0.02,0.633l2.226,2.885
	c-1.819,2.141-3.511,4.383-5.084,6.703l0.238-16.691c0-0.01-0.001-0.02-0.002-0.029
	C349.894,309.795,357.077,303.987,365.126,299.368z M132.832,251.319h14.595c0.074,0.041,0.157,0.062,0.241,0.063h0.074
	l-0.573,46.438c0,0.042,0.005,0.084,0.015,0.125c0.112,0.452,0.031,0.793-0.217,1.145c-0.247,0.353-0.689,0.699-1.29,0.989
	c-1.205,0.58-3.008,0.929-4.868,0.966c-1.859,0.038-3.779-0.233-5.226-0.807c-1.442-0.573-2.349-1.396-2.495-2.468v-35.866
	c0-0.275-0.226-0.499-0.499-0.499h-11.967c-1.531-3.388-1.762-6.674-0.012-10.021h11.979
	C132.674,251.382,132.758,251.36,132.832,251.319z M348.738,268.041h11.26c2.836,0,5.128,2.294,5.128,5.131v13.13
	c-0.001,0.064,0.011,0.128,0.034,0.188c-8.054,3.632-15.256,8.337-21.551,14.075v-27.393
	C343.609,270.335,345.901,268.041,348.738,268.041z M273.281,228.265c3.398-0.078,8.624,0.223,15.891,1.744
	c10.011,2.096,15.87,3.383,21.637,4.177l0.214,16.018c0,0-3.079-4.455-3.232-4.466l-4.916-0.363
	c0.317-0.225,0.404-0.204,0.741-0.552c0.426-0.44,0.822-0.982,1.009-1.633c0.188-0.651,0.136-1.415-0.293-2.151
	c-0.808-1.388-1.98-1.847-2.892-1.883c-0.517-0.02-0.622,0.082-0.915,0.172c0,0-0.274-3.864-0.525-3.887
	c0,0-20.692-1.921-20.785-1.864c0,0-3.787,2.299-6.713,0.389c-1.476-0.965-1.933-2.296-2.048-3.441
	c-0.115-1.145,0.137-2.037,0.137-2.037c0.005-0.018,0.009-0.037,0.012-0.055C271.325,228.357,272.167,228.29,273.281,228.265z
	 M231.051,225.144c0.468,1.595,1.946,5.748,5.804,7.904c-2.601,2.315-4.482,4.945-5.782,7.814c-1.203-3.235-3.079-5.913-5.759-7.867
	C229.118,230.816,230.586,226.729,231.051,225.144z M219.913,207.062c0.468,1.596,1.947,5.749,5.805,7.905
	c-2.601,2.315-4.483,4.944-5.784,7.814c-1.202-3.235-3.079-5.911-5.758-7.865C217.981,212.737,219.446,208.648,219.913,207.062z
	 M241.581,206.992c0.468,1.596,1.947,5.748,5.804,7.904c-2.601,2.315-4.482,4.945-5.783,7.814c-1.202-3.235-3.078-5.912-5.758-7.867
	C239.649,212.665,241.116,208.577,241.581,206.992z"></path>
<path id="color_x5F_3" fill-rule="evenodd" clip-rule="evenodd" fill="#b8e986" d="M409.719,295.798
	c0.67,0.003,1.34,0.013,2.011,0.033c2.682,0.082,5.357,0.312,8.022,0.652l0.273,3.576c0.018,0.233,0.197,0.423,0.427,0.456
	c4.244,0.609,8.429,1.562,12.514,2.85c0.221,0.07,0.461-0.023,0.579-0.222l1.838-3.1c5.089,1.691,9.997,3.869,14.654,6.506
	l-1.134,3.402c-0.075,0.223,0.018,0.47,0.221,0.589c3.685,2.162,7.184,4.621,10.46,7.35c0.177,0.148,0.433,0.154,0.618,0.016
	l2.904-2.173c4.045,3.479,7.733,7.34,11.012,11.529l-2.368,2.714c-0.155,0.178-0.164,0.442-0.021,0.63
	c2.566,3.387,4.843,6.976,6.81,10.731c0.108,0.205,0.344,0.31,0.567,0.252l3.53-0.913c2.386,4.737,4.293,9.69,5.696,14.794
	l-3.246,1.616c-0.211,0.104-0.32,0.344-0.262,0.571c1.056,4.095,1.767,8.268,2.126,12.477c0.02,0.233,0.2,0.421,0.431,0.452
	l3.611,0.487c0.365,5.274,0.203,10.568-0.482,15.81l-3.634,0.265c-0.233,0.018-0.423,0.197-0.456,0.427
	c-0.615,4.179-1.578,8.301-2.882,12.323c-0.073,0.223,0.021,0.469,0.225,0.587l3.144,1.808c-1.711,5.008-3.917,9.837-6.588,14.421
	l-3.466-1.124c-0.22-0.072-0.462,0.019-0.581,0.217c-2.192,3.628-4.685,7.071-7.452,10.295c-0.154,0.179-0.16,0.443-0.016,0.63
	l2.198,2.852c-3.528,3.982-7.443,7.613-11.693,10.839l-2.768-2.347c-0.176-0.149-0.433-0.158-0.618-0.021
	c-3.437,2.525-7.077,4.766-10.888,6.701c-0.21,0.107-0.317,0.348-0.256,0.575l0.925,3.463c-4.81,2.348-9.841,4.224-15.025,5.602
	l-1.644-3.205c-0.106-0.205-0.34-0.313-0.564-0.258c-4.156,1.037-8.393,1.734-12.666,2.083c-0.234,0.019-0.423,0.2-0.455,0.431
	l-0.489,3.551c-5.358,0.356-10.737,0.192-16.064-0.49l-0.273-3.574c-0.018-0.233-0.197-0.423-0.427-0.456
	c-4.244-0.609-8.431-1.562-12.516-2.85c-0.221-0.07-0.461,0.022-0.579,0.22l-1.838,3.1c-5.089-1.691-9.997-3.869-14.654-6.506
	l1.134-3.4c0.075-0.223-0.018-0.469-0.221-0.589c-3.685-2.162-7.184-4.621-10.46-7.35c-0.177-0.147-0.433-0.154-0.618-0.016
	l-2.904,2.171c-4.046-3.48-7.735-7.339-11.014-11.529l2.37-2.712c0.155-0.178,0.164-0.442,0.021-0.63
	c-2.566-3.387-4.843-6.976-6.81-10.731c-0.108-0.205-0.344-0.31-0.567-0.252l-3.53,0.911c-2.386-4.736-4.293-9.69-5.696-14.792
	l3.246-1.617c0.211-0.105,0.32-0.345,0.262-0.572c-1.056-4.094-1.767-8.266-2.126-12.475c-0.02-0.233-0.2-0.421-0.431-0.452
	l-3.611-0.487c-0.365-5.274-0.203-10.568,0.482-15.809l3.634-0.268c0.233-0.017,3.317-13.218,3.113-13.336l-3.142-1.81
	c1.711-5.009,3.915-9.837,6.586-14.419l3.466,1.125c0.221,0.073,0.463-0.018,0.583-0.216c2.192-3.629,4.683-7.071,7.45-10.296
	c0.154-0.179,0.162-0.443,0.018-0.63l-2.2-2.854c3.528-3.981,7.443-7.611,11.693-10.837l2.768,2.345
	c0.176,0.149,0.433,0.158,0.618,0.021c3.437-2.525,7.077-4.766,10.888-6.701c0.209-0.106,0.316-0.347,0.256-0.573l-0.925-3.465
	c4.81-2.348,9.841-4.224,15.025-5.602l1.644,3.207c0.106,0.206,0.342,0.314,0.566,0.258c4.156-1.037,8.391-1.736,12.664-2.085
	c0.233-0.019,0.422-0.198,0.455-0.429l0.489-3.551C405.695,295.862,407.707,295.791,409.719,295.798z M170.238,379.493
	c21.296,0,38.549,17.253,38.549,38.549c0,21.295-17.253,38.548-38.549,38.548c-21.295,0-38.546-17.253-38.546-38.548
	C131.692,396.746,148.943,379.493,170.238,379.493z M170.238,401.1c-9.351,0-16.942,7.591-16.942,16.942
	c0,9.352,7.592,16.942,16.942,16.942c9.352,0,16.942-7.591,16.942-16.942C187.18,408.691,179.59,401.1,170.238,401.1z
	 M408.347,333.948c-22.825,0.445-41.555,18.492-42.248,41.235c-0.715,23.476,18.059,43.128,41.879,43.853
	c23.818,0.725,43.754-17.746,44.469-41.224c0.715-23.475-18.06-43.128-41.879-43.853
	C409.825,333.937,409.083,333.933,408.347,333.948z M317.186,359.362h-27.663c-17.681-1.441-33.592-4.857-33.592-4.857
	c-0.035-0.008-0.07-0.012-0.106-0.012c-0.266,0-0.487,0.213-0.498,0.477l-0.427,9.066c-0.001,0-0.001,0.001-0.002,0.001
	c-0.117,0.095-0.184,0.238-0.184,0.388c0,0.135,0.054,0.264,0.151,0.359l-2.202,46.691c-6.074,2.954-12.513,3.197-19.443,0.657
	c0.007-0.529,0.638-47.218,0.913-67.606c0.068-4.958,3.937-9.018,8.886-9.325c14.495-0.894,40.496-2.496,41.198-2.54
	c8.135,3.146,26.905,5.734,35.402,5.738c-0.546,1.605-1.073,3.228-1.557,4.892c-0.437,1.501-0.258,2.866,0.36,3.886
	c0.616,1.02,1.666,1.682,2.868,1.808c2.402,0.253,5.298-1.59,6.96-6.275c0.626-1.763,1.326-3.492,2.077-5.197
	c0.07,0.022,0.144,0.029,0.216,0.019c2.953-0.381,5.539-0.896,6.308-1.173c0.385-0.138-4.668,9.537-6.302,14.399
	c-0.075,0.224,0.02,0.472,0.225,0.59l0.246,0.143c-0.088,0.052-0.157,0.13-0.199,0.223c-1.434,3.181-3.03,5.01-6.33,6.214
	C322.668,358.594,320.289,359.042,317.186,359.362z M408.405,340.363c0.62-0.012,1.244-0.009,1.871,0.01
	c20.058,0.611,35.81,17.109,35.209,36.856c-0.601,19.746-17.329,35.255-37.386,34.645c-20.058-0.61-35.812-17.109-35.211-36.855
	C373.471,355.889,389.189,340.737,408.405,340.363z M409.611,362.105c-7.845-0.239-14.414,5.846-14.65,13.586
	c-0.236,7.742,5.951,14.213,13.796,14.451c7.845,0.239,14.414-5.844,14.65-13.585C423.643,368.816,417.456,362.343,409.611,362.105z
	 M305.562,275.136c1.811,0.089,3.42,0.873,4.705,2.061c2.936,2.718,4.326,5.708,1.215,11.733
	c-2.55,4.938-12.772,18.428-13.462,19.277c-6.477-1.776-9.762-5.831-12.943-12.781c1.504-1.897,12.631-16.397,12.657-16.431
	c2.498-2.625,4.909-3.72,7.04-3.852C305.041,275.125,305.303,275.123,305.562,275.136z M294.815,209.323l17.071,7.052l1.169,8.455
	c-1.758-0.331-2.533-0.477-4.694-0.882c-10.61-1.988-20.189-3.073-28.114-3.078c-1.023-0.001-2.015,0.017-2.98,0.052l1.681-4.714
	L294.815,209.323z"></path>
<path id="color_x5F_2" fill-rule="evenodd" clip-rule="evenodd" fill="#f5a623" d="M170.238,402.099
	c8.812,0,15.944,7.131,15.944,15.944c0,8.811-7.131,15.944-15.944,15.944c-8.811,0-15.944-7.132-15.944-15.944
	C154.294,409.23,161.427,402.099,170.238,402.099z M170.238,409.475c-4.725,0-8.568,3.841-8.568,8.568
	c0,4.725,3.842,8.568,8.568,8.568c4.726,0,8.568-3.842,8.568-8.568C178.806,413.316,174.964,409.475,170.238,409.475z
	 M252.529,412.664c0.121,3.439,0.648,7.632,0.753,8.999c0.053,0.699-0.203,1.384-0.716,1.898c-0.514,0.514-1.238,0.804-1.998,0.788
	c-6.41-0.133-20.248-0.422-29.109-0.606c-0.778-0.016-1.432-0.522-1.616-1.21c-0.183-0.688,0.132-1.396,0.802-1.754
	c6.393-3.408,11.669-7.335,12.165-7.708C239.761,415.635,246.365,415.483,252.529,412.664z M408.368,334.945
	c0.72-0.014,1.443-0.011,2.171,0.011c23.287,0.709,41.607,19.898,40.909,42.825c-0.698,22.929-20.153,40.965-43.439,40.256
	c-23.288-0.709-41.609-19.897-40.911-42.825C367.775,353.001,386.055,335.379,408.368,334.945z M408.386,339.364
	c-19.728,0.385-35.896,15.963-36.495,35.623c-0.618,20.294,15.588,37.259,36.176,37.886c20.589,0.627,37.799-15.318,38.416-35.613
	c0.618-20.294-15.59-37.259-36.178-37.886C409.663,339.354,409.023,339.352,408.386,339.364z M202.15,346.097h-70.149
	c-0.488,0-0.876-0.388-0.876-0.876v-2.753c0-0.488,0.388-0.876,0.876-0.876h70.149c0.489,0,0.874,0.387,0.874,0.876v2.753
	C203.024,345.71,202.64,346.096,202.15,346.097z M316.009,258.538c0.27,0.003,0.464,0.048,0.434,0.037
	c7.252,2.914,13.198,11.695,17.047,24.755c1.291,4.375,3.023,13.328,3.855,23.384c0.003,0.071,0.022,0.14,0.055,0.203
	c-7.437,8.464-13.285,18.665-17.435,30.488c-7.886,0.064-26.464-2.482-34.739-5.436c-0.043-0.129-0.138-0.235-0.262-0.293
	l0.64-10.752c1.477-0.723,2.988-1.745,4.507-2.995c3.652-3.005,7.381-7.295,10.745-11.683c6.725-8.77,11.987-17.946,11.991-17.952
	c2.636-3.552,1.35-8.816-1.905-11.828c-1.635-1.513-3.801-2.47-6.23-2.319c-2.429,0.15-5.085,1.404-7.714,4.17
	c-0.013,0.014-10.765,14.035-12.092,15.718c0.935-6.531,2.186-21.991,2.231-22.278c0.35-2.214,2.176-4.235,4.86-5.979
	c2.683-1.745,6.181-3.194,9.695-4.32c3.513-1.125,7.041-1.93,9.794-2.405c1.376-0.238,2.561-0.393,3.443-0.466
	C315.372,258.55,315.739,258.534,316.009,258.538z M337.728,324.321c-0.22,3.857-0.695,7.264-1.471,10.825
	c-0.016-0.002-0.033-0.002-0.049-0.002c-0.18,0.003-0.346,0.103-0.43,0.262c-0.019,0.012-0.108,0.081-0.399,0.185
	c-0.605,0.218-1.961,0.545-4.609,0.901C332.717,332.228,335.057,328.165,337.728,324.321z M202.15,336.019h-70.149
	c-0.488,0-0.876-0.388-0.876-0.876v-2.753c0-0.488,0.388-0.876,0.876-0.876h70.149c0.489,0,0.874,0.387,0.874,0.876v2.753
	C203.024,335.632,202.64,336.019,202.15,336.019z M202.15,325.334h-70.149c-0.488,0-0.876-0.388-0.876-0.875v-2.751
	c0-0.488,0.388-0.876,0.876-0.876h70.149c0.489,0,0.874,0.387,0.874,0.876v2.751C203.024,324.948,202.64,325.334,202.15,325.334z
	 M226.894,291.048l5.219,2.79l0.003,0.002c0.223,0.155,0.471,0.319,0.699,0.474c-0.032,0.033-0.059,0.069-0.08,0.109l-4.118,7.319
	c-0.045,0.074-0.07,0.157-0.073,0.243c-1.789-1.652-3.925-3.051-6.328-4.118c0.074-0.038,0.137-0.094,0.184-0.163l4.464-6.605
	C226.874,291.083,226.885,291.066,226.894,291.048z M240.652,276.445l16.824,7.769c0.749,0.346,1.072,1.223,0.726,1.972
	l-1.338,2.888l-15.227-8.055L240.652,276.445z M210.005,262.425c0.193,0.007,0.388,0.052,0.575,0.139l19.923,9.196l-8.936,1.924
	c-0.837,0.18-1.559,0.596-2.132,1.155l-11.748-5.962c-0.005-0.003-0.011-0.005-0.017-0.008c-0.75-0.347-1.072-1.223-0.726-1.972
	l1.664-3.608C208.867,262.727,209.425,262.405,210.005,262.425z M280.245,221.869c7.833,0.005,17.365,1.081,27.933,3.06
	c6.759,1.266,11.437,2.149,14.681,2.761c3.98,0.893,6.759,3.442,7.251,6.236c-0.332,0.058-0.847,0.132-1.666,0.189
	c-1.693,0.12-4.583,0.171-9.313-0.113c-9.457-0.567-15.15-1.913-29.755-4.97c-7.337-1.536-12.64-1.845-16.119-1.766
	c-3.294,0.075-4.938,0.498-5.109,0.544c-0.05,0.004-3.401,0.254-5.743-0.043c-0.59-0.075-2.017-0.244-1.994-0.675
	c0.022-0.431,1.184-1.351,2.129-1.916C266.278,222.948,272.412,221.863,280.245,221.869z M449.441,181.572h-79.946
	c2.434-2.704,6.411-5.083,11.537-6.748c0.145-0.046,0.261-0.157,0.315-0.299c1.579-4.192,5.628-7.178,10.375-7.178
	c2.149,0,4.151,0.609,5.851,1.668c0.079,0.049,0.171,0.075,0.264,0.075c0.187,0,0.359-0.104,0.444-0.271
	c2.557-4.957,7.723-8.351,13.684-8.351c6.733,0,12.456,4.331,14.542,10.352c0.07,0.201,0.26,0.337,0.472,0.337
	c0.082,0,0.164-0.02,0.236-0.059c2.16-1.159,4.626-1.813,7.247-1.813C441.886,169.286,447.991,174.583,449.441,181.572z
	 M229.17,158.453h-79.946c2.434-2.703,6.413-5.083,11.539-6.747c0.144-0.047,0.259-0.157,0.312-0.299
	c1.58-4.192,5.631-7.179,10.378-7.179c2.149,0,4.149,0.61,5.849,1.668c0.079,0.05,0.171,0.076,0.264,0.076
	c0.187,0,0.359-0.105,0.444-0.271c2.557-4.957,7.725-8.351,13.686-8.351c6.732,0,12.454,4.332,14.54,10.354
	c0.07,0.2,0.26,0.335,0.471,0.335c0.083,0,0.164-0.021,0.237-0.06c2.16-1.159,4.628-1.812,7.249-1.812
	C221.616,146.168,227.72,151.465,229.17,158.453z"></path>
<path id="color_x5F_1" fill="#417505" d="M191.697,135.853c-6.189,0-11.532,3.403-14.471,8.384
	c-1.741-0.91-3.676-1.506-5.772-1.506c-5.19,0-9.604,3.19-11.523,7.694c-5.642,1.888-10.12,4.576-12.663,7.924
	c-0.132,0.174-0.204,0.387-0.204,0.604c0,0.548,0.451,0.999,0.999,0.999c0.001,0,0.001,0,0.001,0h81.805
	c0.548,0,0.999-0.45,0.999-0.999c0-0.055-0.004-0.109-0.013-0.164c-1.321-8.007-8.291-14.119-16.66-14.119
	c-2.519,0-4.874,0.635-7.026,1.631C204.618,140.202,198.702,135.853,191.697,135.853z M191.697,137.85
	c6.518,0,12.05,4.192,14.069,10.017c0.139,0.402,0.518,0.672,0.944,0.672c0.165,0,0.327-0.04,0.472-0.118
	c2.089-1.121,4.475-1.754,7.012-1.754c6.961,0,12.644,4.843,14.278,11.286h-78.081c2.405-2.269,6.001-4.302,10.526-5.772
	c0.289-0.094,0.519-0.315,0.626-0.598c1.508-4.002,5.372-6.856,9.91-6.856c2.054,0,3.962,0.581,5.585,1.592
	c0.159,0.099,0.342,0.152,0.529,0.152c0.373,0,0.715-0.209,0.887-0.54C180.929,141.135,185.924,137.85,191.697,137.85z
	 M411.966,158.971c-6.189,0-11.532,3.403-14.47,8.385c-1.742-0.91-3.678-1.506-5.773-1.506c-5.19,0-9.604,3.189-11.523,7.694
	c-5.642,1.888-10.12,4.576-12.663,7.924c-0.132,0.174-0.204,0.386-0.204,0.604c0,0.548,0.451,0.999,0.999,0.999
	c0.001,0,0.001,0,0.001,0h81.806c0.547,0,0.998-0.451,0.998-0.999c0-0.055-0.004-0.11-0.013-0.164
	c-1.321-8.008-8.291-14.12-16.66-14.12c-2.519,0-4.874,0.634-7.026,1.629C424.886,163.319,418.971,158.971,411.966,158.971z
	 M411.966,160.968c6.518,0,12.052,4.192,14.071,10.017c0.139,0.402,0.519,0.673,0.944,0.673c0.165,0,0.327-0.041,0.472-0.119
	c2.089-1.121,4.473-1.754,7.01-1.754c6.961,0,12.644,4.843,14.278,11.287H370.66c2.405-2.27,6.001-4.303,10.526-5.772
	c0.29-0.094,0.52-0.315,0.626-0.599c1.508-4.001,5.372-6.855,9.91-6.855c2.055,0,3.962,0.581,5.585,1.592
	c0.159,0.099,0.342,0.151,0.529,0.151c0.373,0,0.715-0.209,0.887-0.539C401.198,164.254,406.194,160.968,411.966,160.968z
	 M241.616,204.63c-0.017,0-0.034,0.001-0.051,0.002c-0.454,0.002-0.852,0.315-0.963,0.755c0,0-1.863,6.683-5.968,8.548
	c-0.357,0.162-0.585,0.518-0.585,0.91c0,0.332,0.165,0.643,0.44,0.829c2.968,1.993,4.988,4.743,6.128,8.38
	c0.129,0.405,0.5,0.685,0.925,0.696c0.02,0.002,0.04,0.002,0.06,0.002c0.006,0,0.011-0.001,0.016-0.002
	c0.028,0,0.056-0.002,0.084-0.005c0.364-0.041,0.677-0.278,0.816-0.617c1.276-3.173,3.296-6.019,6.242-8.523
	c0.223-0.19,0.351-0.467,0.351-0.76c0-0.392-0.23-0.748-0.585-0.91c-4.104-1.865-5.966-8.548-5.966-8.548
	C242.452,204.953,242.064,204.641,241.616,204.63z M219.938,204.7c-0.469-0.016-0.891,0.301-1.005,0.757
	c0,0-1.863,6.683-5.967,8.549c-0.357,0.162-0.586,0.518-0.586,0.909c0,0.333,0.166,0.643,0.441,0.829
	c2.967,1.993,4.988,4.742,6.128,8.379c0.128,0.405,0.5,0.686,0.925,0.698c0.02,0.001,0.041,0.002,0.062,0.002
	c0.006-0.001,0.012-0.002,0.018-0.002c0.026-0.001,0.053-0.003,0.08-0.006h0.004c0.363-0.042,0.674-0.28,0.811-0.618
	c1.277-3.173,3.297-6.018,6.242-8.521c0.223-0.19,0.352-0.468,0.352-0.761c0-0.391-0.23-0.747-0.585-0.909
	c-4.104-1.866-5.966-8.549-5.966-8.549c-0.108-0.434-0.496-0.746-0.944-0.757C219.945,204.7,219.94,204.7,219.938,204.7z
	 M294.801,207.782c-0.134,0.001-0.267,0.029-0.39,0.082l-16.26,7.056c-0.253,0.11-0.449,0.321-0.542,0.581l-1.785,5
	c-5.9,0.334-10.69,1.383-14.049,3.388c-1.019,0.607-1.722,1.131-2.208,1.678c-0.487,0.547-0.822,1.296-0.569,2.019
	c0.252,0.723,0.846,1.043,1.396,1.254c0.55,0.213,1.163,0.331,1.822,0.413c2.639,0.335,6.079,0.047,6.079,0.047
	c0.067-0.005,0.133-0.017,0.197-0.035c0,0,0.193-0.047,0.482-0.106c-0.044,0.43-0.07,0.935-0.012,1.514
	c0.146,1.443,0.822,3.305,2.72,4.545c2.571,1.679,5.227,1.016,6.74,0.383c0.008,1.965,0.041,4.262,0.138,7.092
	c0.064,1.823,0.497,4.084,1.246,6.24c0.75,2.156,1.79,4.205,3.258,5.546c2.708,2.473,6.304,3.777,9.998,3.635l0.477-0.018
	l0.28,4.543c0.005,0.115,0.03,0.229,0.074,0.336c-0.954,0.484-1.867,0.996-2.712,1.545c-2.863,1.861-5.069,4.142-5.52,6.999
	c-0.058,0.363-0.114,0.838-0.17,1.291l-6.701,12.203l-28.78-10.815c-0.25-0.46-3.366-6.007-9.022-5.649
	c-2.641,0.167-4.261,0.533-5.269,0.891c-0.504,0.18-0.855,0.359-1.099,0.511c-0.244,0.153-0.448,0.358-0.448,0.358
	c-0.047,0.053-0.088,0.111-0.123,0.173l-1.912,0.413c-0.062-0.05-0.129-0.092-0.201-0.125l-20.729-9.57
	c-0.743-0.344-1.562-0.349-2.28-0.084c-0.719,0.265-1.337,0.8-1.68,1.542l-1.666,3.608c-0.686,1.485-0.027,3.274,1.459,3.96
	l11.071,5.618c-0.47,0.956-0.653,2.059-0.413,3.175l1.642,7.64c0.532,2.469,2.876,4.036,5.336,3.768l0.609,0.326l-4.128,6.111
	c-0.007,0.011-0.013,0.022-0.02,0.033c-3.116-1.195-6.585-1.881-10.244-1.881h-62.191l0.544-44.122c0-0.004,0-0.009,0-0.013
	c0-0.548-0.451-0.999-0.999-0.999h-0.235c-0.11-0.042-0.227-0.063-0.345-0.063h-15.08c-0.117,0.001-0.232,0.022-0.342,0.063h-11.971
	c-0.363-0.001-0.698,0.197-0.874,0.514c-2.187,3.955-1.856,8.063-0.029,11.928c0.164,0.35,0.516,0.573,0.903,0.574h11.314v32.117
	h-9.474c-0.001,0-0.002,0-0.002,0c-12.14,0.001-22.151,8.511-22.151,19.166v48.521c0,2.411-0.126,16.627-0.238,28.971
	c0,0.001,0,0.002,0,0.002c-0.079,11.134,8.863,20.265,19.997,20.419c0.335,0.005,0.519,0.007,0.519,0.007
	c0.005,0.001,0.01,0.001,0.015,0c1.363,0,2.486-0.891,3.227-2.09c0.741-1.201,1.241-2.769,1.625-4.623
	c4.4-20.141,22.732-34.117,43.32-33.025c0.017,0.001,0.035,0.002,0.053,0.002c3.43,0,12.148-0.149,21.795-0.336
	c0.108,0.094,0.234,0.163,0.371,0.204c16.107,4.975,28.079,21.785,28.079,41.818c0,1.971-0.115,3.912-0.34,5.813
	c-0.009,0.072-0.01,0.145-0.004,0.217l-1.478-0.014c-0.003,0-0.006,0-0.01,0c-0.547,0-0.999,0.45-0.999,0.999v15.381
	c0,0.546,0.447,0.996,0.993,0.999l125.931,0.79c0.063,0.001,0.126-0.004,0.188-0.015c0,0,0.6-0.018,1.136-0.61
	c0.267-0.297,0.462-0.85,0.365-1.344c-0.098-0.495-0.374-0.891-0.771-1.297c0-0.001,0-0.001,0-0.002
	c-3.653-3.742-10.146-14.172-14.984-26.384c-4.755-12.004-7.945-25.793-5.852-36.861h3.084c-0.207,3.565-0.179,7.141,0.086,10.707
	c0.034,0.469,0.396,0.854,0.862,0.917l3.273,0.441c0.36,3.747,0.995,7.463,1.897,11.121l-2.939,1.462
	c-0.424,0.212-0.643,0.698-0.519,1.156c1.474,5.469,3.517,10.775,6.096,15.832c0.213,0.415,0.688,0.63,1.14,0.513l3.203-0.829
	c1.789,3.332,3.818,6.53,6.075,9.574l-2.141,2.452c-0.313,0.359-0.329,0.892-0.037,1.267c3.486,4.5,7.432,8.633,11.779,12.333
	c0.354,0.302,0.874,0.318,1.246,0.039l2.635-1.972c2.95,2.408,6.07,4.601,9.341,6.566l-1.027,3.072
	c-0.15,0.45,0.041,0.949,0.453,1.184c4.966,2.844,10.215,5.174,15.664,6.955c0.443,0.146,0.933-0.038,1.171-0.438l1.666-2.812
	c3.662,1.115,7.398,1.966,11.183,2.548l0.248,3.235c0.036,0.468,0.398,0.852,0.865,0.915c5.69,0.756,11.442,0.931,17.168,0.522
	c0.469-0.033,0.855-0.395,0.919-0.86l0.442-3.213c3.815-0.352,7.598-0.974,11.32-1.863l1.49,2.906
	c0.213,0.415,0.69,0.628,1.142,0.51c5.548-1.446,10.929-3.455,16.058-5.991c0.425-0.21,0.645-0.694,0.523-1.153l-0.835-3.131
	c3.383-1.761,6.63-3.761,9.72-5.985l2.511,2.13c0.355,0.301,0.875,0.315,1.246,0.035c4.563-3.43,8.753-7.312,12.506-11.591
	c0.314-0.358,0.331-0.892,0.041-1.268l-1.988-2.579c2.437-2.9,4.658-5.969,6.646-9.186l3.147,1.022
	c0.443,0.144,0.932-0.041,1.169-0.442c2.882-4.891,5.244-10.065,7.047-15.434c0.151-0.449-0.038-0.946-0.448-1.183l-2.847-1.638
	c1.124-3.597,1.983-7.268,2.57-10.987l3.297-0.241c0.468-0.035,0.852-0.397,0.915-0.862c0.761-5.608,0.936-11.278,0.516-16.922
	c-0.035-0.469-0.398-0.853-0.864-0.915l-3.275-0.443c-0.36-3.747-0.992-7.464-1.895-11.122l2.939-1.459
	c0.426-0.211,0.645-0.697,0.521-1.156c-1.474-5.469-3.519-10.774-6.099-15.832c-0.212-0.415-0.687-0.629-1.139-0.513l-3.201,0.827
	c-1.789-3.331-3.82-6.528-6.077-9.572l2.141-2.452c0.314-0.359,0.33-0.894,0.037-1.269c-3.486-4.5-7.432-8.63-11.779-12.331
	c-0.354-0.302-0.873-0.32-1.246-0.041l-2.635,1.973c-2.949-2.407-6.07-4.6-9.339-6.565l1.025-3.074
	c0.149-0.449-0.04-0.946-0.451-1.182c-4.966-2.844-10.217-5.175-15.666-6.957c-0.443-0.146-0.933,0.039-1.171,0.44l-1.664,2.812
	c-3.663-1.115-7.399-1.97-11.185-2.552l-0.248-3.232c-0.037-0.468-0.398-0.851-0.865-0.913c-2.845-0.378-5.704-0.611-8.57-0.699
	c-2.865-0.087-5.736-0.028-8.599,0.176c-0.468,0.034-0.852,0.393-0.917,0.859l-0.444,3.214c-3.816,0.352-7.597,0.972-11.32,1.862
	l-1.49-2.905c-0.213-0.414-0.689-0.627-1.14-0.51c-5.548,1.446-10.931,3.455-16.06,5.991c-0.425,0.21-0.645,0.694-0.523,1.153
	l0.837,3.131c-1.876,0.977-3.705,2.034-5.495,3.154v-11.371c13.651-7.538,29.709-11.665,46.783-11.144
	c39.19,1.194,71.549,26.482,81.188,59.988c0.722,2.507,1.934,4.219,3.397,5.201c1.462,0.981,3.138,1.192,4.615,0.848
	c1.477-0.344,2.779-1.217,3.617-2.43c0.838-1.215,1.187-2.817,0.68-4.415c-9.679-30.577-40.669-68.452-91.556-70.001
	c-18.516-0.564-34.834,2.267-48.725,8.199v-12.159c0-3.648-2.979-6.629-6.626-6.629h-11.26c-3.648,0-6.627,2.981-6.627,6.629v27.888
	c0,0.081,0.009,0.163,0.028,0.242c-1.19,1.128-2.35,2.286-3.473,3.488c-0.885-9.398-2.474-17.601-3.737-21.883
	c-3.916-13.285-9.978-22.528-17.925-25.723c-0.396-0.159-0.632-0.14-0.976-0.144c-0.344-0.004-0.748,0.013-1.221,0.052
	c-0.612,0.051-1.371,0.15-2.19,0.27l-0.301-22.465c2.137,0.26,4.313,0.455,6.727,0.6c4.776,0.287,7.726,0.239,9.507,0.113
	c0.891-0.062,1.49-0.143,1.883-0.214s0.644-0.155,0.644-0.155c0.365-0.131,0.622-0.463,0.657-0.85c0.005-0.059,0.005-0.119,0-0.178
	c-0.341-3.838-3.902-6.946-8.551-7.986c-0.011-0.003-0.022-0.005-0.033-0.008c-1.901-0.358-5.593-1.051-8.615-1.619l-1.204-8.714
	c-0.049-0.351-0.281-0.65-0.608-0.786l-17.532-7.243C295.068,207.806,294.935,207.781,294.801,207.782z M241.581,208.429
	c0.766,2.096,2.138,4.619,5.072,6.527c-2.163,2.017-3.802,4.267-5.029,6.693c-1.163-2.687-2.745-5.035-4.98-6.799
	C239.487,212.927,240.827,210.49,241.581,208.429z M219.913,208.496c0.766,2.097,2.136,4.621,5.072,6.529
	c-2.163,2.017-3.802,4.268-5.029,6.693c-1.163-2.687-2.745-5.034-4.981-6.798C217.818,212.997,219.158,210.559,219.913,208.496z
	 M294.819,209.866l16.613,6.861l1.034,7.485c-1.551-0.291-2.165-0.409-4.013-0.754c-10.631-1.993-20.236-3.081-28.206-3.086
	c-0.776-0.001-1.522,0.017-2.267,0.037l1.366-3.827L294.819,209.866z M280.245,222.369c7.788,0.005,17.295,1.075,27.841,3.05
	c6.755,1.265,11.426,2.149,14.669,2.761c3.57,0.803,6.011,2.979,6.705,5.32c-0.304,0.041-0.526,0.083-1.051,0.119
	c-1.664,0.117-4.534,0.168-9.249-0.115c-9.422-0.565-15.074-1.902-29.683-4.961c-7.37-1.543-12.712-1.853-16.232-1.773
	c-3.154,0.072-4.832,0.458-5.164,0.542c-0.095,0.007-3.38,0.244-5.614-0.039c-0.566-0.072-1.059-0.183-1.355-0.297
	c-0.05-0.019-0.05-0.027-0.084-0.045c0.017-0.021,0.006-0.009,0.031-0.037c0.25-0.281,0.816-0.737,1.738-1.287
	C266.391,223.462,272.458,222.363,280.245,222.369z M231.086,222.782c-0.017,0-0.034,0.001-0.051,0.002
	c-0.454,0.002-0.852,0.314-0.963,0.755c0,0-1.863,6.683-5.968,8.548c-0.356,0.162-0.585,0.518-0.585,0.91
	c0,0.332,0.166,0.643,0.44,0.828c2.968,1.994,4.988,4.744,6.128,8.381c0.119,0.375,0.447,0.645,0.837,0.69
	c0.028,0.004,0.056,0.005,0.084,0.006c0.022,0.002,0.043,0.002,0.065,0.002c0.005,0,0.01-0.001,0.015-0.002
	c0.028-0.001,0.056-0.002,0.084-0.006c0.364-0.04,0.677-0.277,0.816-0.616c1.276-3.173,3.296-6.02,6.242-8.523
	c0.223-0.19,0.351-0.468,0.351-0.76c0-0.392-0.23-0.748-0.585-0.91c-4.104-1.865-5.965-8.548-5.965-8.548
	C231.922,223.104,231.533,222.793,231.086,222.782z M231.051,226.579c0.766,2.097,2.138,4.62,5.072,6.528
	c-2.163,2.017-3.802,4.267-5.029,6.693c-1.162-2.686-2.744-5.033-4.978-6.797C228.958,231.081,230.297,228.642,231.051,226.579z
	 M273.291,228.765c3.357-0.077,8.544,0.22,15.778,1.734c9.761,2.044,15.592,3.321,21.245,4.122l0.186,13.911l-1.918-2.854
	c-0.171-0.255-0.449-0.417-0.755-0.439l-3.725-0.273c0.405-0.45,0.807-0.96,1.003-1.639c0.219-0.764,0.149-1.698-0.342-2.54
	c-0.885-1.519-2.261-2.089-3.305-2.13c-0.252-0.01-0.231,0.055-0.446,0.084l-0.061-2.825c-0.01-0.504-0.403-0.926-0.905-0.973
	l-20.475-1.936c-0.217-0.02-0.434,0.031-0.62,0.147c0,0-3.56,2.1-6.176,0.392c-1.335-0.873-1.718-2.028-1.824-3.072
	c-0.079-0.787,0.014-1.312,0.073-1.586C271.655,228.832,272.394,228.785,273.291,228.765z M280.413,235.093l18.559,1.756
	l0.064,3.082c0.012,0.539,0.459,0.978,0.999,0.978c0.148,0,0.294-0.033,0.427-0.097c0,0,0.396-0.178,0.917-0.158
	c0.522,0.021,1.076,0.141,1.656,1.138c0.242,0.415,0.239,0.669,0.149,0.983c-0.09,0.314-0.329,0.68-0.646,1.009
	c-0.634,0.657-1.478,1.105-1.478,1.105c-0.333,0.171-0.542,0.514-0.542,0.888c0,0.52,0.406,0.957,0.925,0.996l5.752,0.423
	l3.313,4.93c0.013,0.019,0.026,0.038,0.041,0.056l0.074,5.511c-2.722,0.495-6.038,1.264-9.387,2.337
	c-1.85,0.592-3.699,1.274-5.45,2.047L295.475,257c-0.033-0.538-0.497-0.958-1.036-0.937l-1.455,0.057
	c-3.174,0.123-6.257-0.999-8.572-3.114c-1.042-0.952-2.036-2.759-2.72-4.726c-0.684-1.968-1.084-4.101-1.138-5.655
	C280.45,239.584,280.416,237.12,280.413,235.093z M132.934,251.819h14.303l-0.567,45.995c-0.001,0.084,0.009,0.168,0.029,0.25
	c0.08,0.324,0.039,0.486-0.139,0.739c-0.177,0.253-0.548,0.559-1.1,0.825c-1.103,0.531-2.858,0.881-4.662,0.917
	c-1.805,0.036-3.672-0.233-5.029-0.772c-1.35-0.536-2.064-1.236-2.181-2.064v-35.805c0-0.548-0.45-0.999-0.999-0.999h-11.625
	c-1.328-3.086-1.504-6.008-0.023-9.022h11.648C132.707,251.881,132.823,251.86,132.934,251.819z M316.003,259.037
	c0.181,0.002,0.326,0.038,0.322,0.029c6.991,2.85,12.872,11.46,16.689,24.403c1.272,4.315,3.005,13.262,3.835,23.285
	c0.001,0.018,0.003,0.036,0.006,0.055c-7.327,8.388-13.11,18.456-17.239,30.092c-7.908-0.009-25.966-2.517-34.063-5.347
	c-0.022-0.031-0.046-0.06-0.072-0.088l0.605-10.211c1.441-0.74,2.896-1.752,4.344-2.943c3.704-3.048,7.446-7.359,10.823-11.763
	c6.754-8.808,12.028-18.009,12.028-18.009c2.781-3.805,1.409-9.29-1.998-12.442c-1.719-1.591-4.024-2.61-6.601-2.451
	c-2.578,0.16-5.353,1.491-8.045,4.324c-0.026,0.027-0.051,0.057-0.074,0.087c0,0-3.81,5.061-7.967,10.443
	c-0.981,1.27-1.981,2.554-2.955,3.797c0.791-6.358,1.292-14.52,1.785-18.86c0.112-0.212,0.144-0.456,0.09-0.69
	c0.039-0.307,0.078-0.665,0.117-0.915c0.317-2,2.017-3.932,4.639-5.637c2.623-1.706,6.088-3.148,9.574-4.265
	c3.487-1.117,6.997-1.916,9.728-2.388c1.365-0.236,2.537-0.389,3.398-0.46C315.403,259.048,315.757,259.033,316.003,259.037z
	 M209.987,262.922c0.129,0.005,0.259,0.036,0.385,0.094l18.563,8.57l-7.474,1.609c-0.803,0.173-1.502,0.553-2.092,1.05
	l-11.455-5.815c-0.012-0.006-0.023-0.011-0.035-0.016c-0.505-0.233-0.715-0.804-0.482-1.308l1.664-3.608
	C209.235,263.12,209.602,262.907,209.987,262.922z M348.738,268.54h11.26c2.566,0,4.628,2.065,4.628,4.631v13.039
	c-7.616,3.476-14.469,7.916-20.518,13.277v-26.316C344.108,270.606,346.172,268.54,348.738,268.54z M241.113,270.546
	c4.404-0.278,7.235,4.76,7.235,4.76c0.071,0.139,0.173,0.26,0.299,0.353c0.12,0.158,0.284,0.277,0.47,0.342l29.78,11.189
	c0.463,0.174,0.99-0.021,1.228-0.454l4.869-8.866c-0.446,5.18-0.922,11.694-1.637,16.462c-0.015,0.103-0.014,0.207,0.002,0.309
	c-0.062,0.184-0.07,0.382-0.021,0.569c-0.26,0.326-0.552,0.701-0.8,1.009c-1.607,1.998-2.769,3.334-3.451,4.042l-20.686-10.94
	l1.161-2.505c0.001-0.001,0.001-0.001,0.002-0.002c0.686-1.486,0.027-3.274-1.459-3.96l-17.163-7.923
	c-0.037-0.018-0.076-0.034-0.115-0.047l-0.172-0.8c-0.304-1.413-1.205-2.548-2.376-3.217
	C239.025,270.737,239.944,270.62,241.113,270.546z M235.836,272.206c1.357-0.017,2.569,0.914,2.866,2.296l1.518,7.057
	c0.062,0.289,0.25,0.535,0.51,0.673l38.124,20.164c0.376,0.198,0.837,0.137,1.148-0.153c0.838-0.781,2.263-2.5,4.092-4.773
	c0.058-0.072,0.129-0.161,0.188-0.234c2.948,6.049,6.371,10.111,12.18,12.063c-2.406,2.853-4.894,5.489-7.301,7.471
	c-3.498,2.879-6.72,4.281-9.075,3.602c-0.069-0.02-0.865-0.356-1.904-0.876c-1.04-0.52-2.423-1.244-4.068-2.13
	c-3.29-1.772-7.627-4.189-12.391-6.933c-9.528-5.489-20.776-12.294-28.803-17.855c-0.031-0.022-0.064-0.041-0.098-0.059
	l-7.393-3.952c-0.209-0.112-0.449-0.145-0.681-0.096c-1.578,0.34-3.114-0.652-3.454-2.231l-1.643-7.638
	c-0.34-1.58,0.651-3.114,2.229-3.455l13.367-2.874C235.445,272.23,235.642,272.208,235.836,272.206z M305.538,275.636
	c1.685,0.081,3.177,0.808,4.39,1.929c2.77,2.563,3.793,7.094,1.689,9.875c-0.026,0.034-0.049,0.07-0.07,0.107
	c0,0-5.23,9.115-11.881,17.787c-0.594,0.776-1.213,1.536-1.828,2.298c-6.031-1.752-9.124-5.537-12.178-12.137
	c1.454-1.836,2.988-3.792,4.518-5.773c4.137-5.355,7.87-10.316,7.924-10.387c2.432-2.552,4.721-3.571,6.703-3.693
	C305.053,275.626,305.298,275.624,305.538,275.636z M241.351,277.319l15.916,7.347c0.504,0.233,0.714,0.807,0.482,1.31l-1.117,2.407
	l-14.558-7.7L241.351,277.319z M410.644,279.057c1.531,0,3.079,0.023,4.644,0.071c49.921,1.52,80.26,38.75,89.713,68.61
	c0.318,1.004,0.115,1.9-0.421,2.677c-0.536,0.777-1.432,1.388-2.424,1.619c-0.992,0.231-2.055,0.105-3.051-0.564
	c-0.997-0.668-1.964-1.92-2.589-4.092c-9.894-34.39-43.033-60.215-83.047-61.433c-31.339-0.954-59.382,13.415-75.82,35.89
	c-0.103,0.095-0.185,0.211-0.241,0.339c-4.438,6.133-8.022,12.855-10.571,20.037c-1.523,4.292-3.875,5.446-5.393,5.287
	c-0.759-0.08-1.363-0.465-1.742-1.093c-0.38-0.627-0.541-1.524-0.201-2.692C331.627,302.049,363.154,279.067,410.644,279.057z
	 M227.058,291.704l4.799,2.565c0.09,0.062,0.192,0.129,0.283,0.191l-3.771,6.705c-1.567-1.355-3.372-2.523-5.362-3.468
	L227.058,291.704z M233.8,295.586c7.906,5.339,18.122,11.506,26.926,16.578c4.779,2.753,9.129,5.177,12.442,6.961
	c1.656,0.892,3.052,1.622,4.12,2.157c1.068,0.534,1.706,0.855,2.243,1.011c1.454,0.419,2.966,0.295,4.505-0.192l-0.54,9.102
	c-1.456,0.09-26.296,1.625-40.572,2.505c-3.397,0.21-6.353,1.967-8.217,4.553l0.035-24.075c0,0,0-0.001,0-0.002
	c0-4.395-1.823-8.41-4.873-11.618c0.02-0.029,0.037-0.059,0.053-0.09L233.8,295.586z M409.818,296.302
	c0.633,0.001,1.265,0.01,1.899,0.029c2.53,0.078,5.052,0.308,7.567,0.617l0.242,3.148c0.036,0.465,0.393,0.847,0.855,0.913
	c4.217,0.605,8.377,1.553,12.436,2.833c0.441,0.14,0.925-0.045,1.161-0.442l1.621-2.738c4.794,1.619,9.422,3.673,13.829,6.14
	l-0.997,2.992c-0.15,0.446,0.036,0.941,0.442,1.179c3.663,2.148,7.136,4.589,10.391,7.301c0.355,0.296,0.87,0.31,1.24,0.033
	l2.567-1.921c3.8,3.3,7.276,6.939,10.389,10.875l-2.085,2.388c-0.31,0.356-0.328,0.884-0.043,1.26
	c2.55,3.365,4.811,6.928,6.766,10.658c0.214,0.411,0.687,0.621,1.135,0.505l3.121-0.807c2.228,4.477,4.025,9.145,5.372,13.949
	l-2.862,1.422c-0.422,0.21-0.64,0.69-0.522,1.146c1.049,4.068,1.756,8.214,2.112,12.395c0.04,0.464,0.401,0.841,0.862,0.903
	l3.188,0.431c0.319,4.973,0.168,9.96-0.453,14.904l-3.208,0.236c-0.466,0.033-0.849,0.389-0.917,0.851
	c-0.611,4.151-1.568,8.247-2.863,12.242c-0.145,0.448,0.045,0.941,0.453,1.175l2.768,1.594c-1.638,4.713-3.715,9.264-6.211,13.596
	l-3.064-0.995c-0.44-0.142-0.924,0.039-1.163,0.435c-2.177,3.605-4.654,7.023-7.403,10.228c-0.308,0.358-0.322,0.887-0.033,1.26
	l1.937,2.51c-3.348,3.739-7.039,7.161-11.034,10.225l-2.446-2.076c-0.352-0.299-0.866-0.316-1.236-0.043
	c-3.414,2.508-7.033,4.735-10.819,6.658c-0.419,0.213-0.633,0.694-0.511,1.149l0.813,3.047c-4.549,2.192-9.294,3.962-14.178,5.287
	l-1.453-2.831c-0.211-0.411-0.681-0.625-1.13-0.513c-4.13,1.03-8.34,1.722-12.587,2.07c-0.463,0.039-0.843,0.397-0.907,0.859
	l-0.432,3.129c-5.059,0.311-10.132,0.158-15.162-0.46l-0.242-3.151c-0.037-0.464-0.394-0.845-0.855-0.911
	c-4.217-0.605-8.377-1.555-12.436-2.835c-0.441-0.138-0.923,0.047-1.159,0.445l-1.623,2.737c-4.794-1.619-9.424-3.674-13.831-6.14
	l0.999-2.992c0.15-0.446-0.036-0.94-0.442-1.178c-3.663-2.149-7.136-4.592-10.391-7.304c-0.355-0.294-0.869-0.307-1.237-0.031
	l-2.569,1.922c-3.799-3.3-7.274-6.941-10.387-10.876l2.083-2.388c0.31-0.356,0.328-0.884,0.043-1.259
	c-2.55-3.365-4.811-6.931-6.766-10.661c-0.215-0.41-0.687-0.619-1.135-0.503l-3.121,0.807c-2.228-4.477-4.025-9.145-5.372-13.949
	l2.862-1.424c0.421-0.21,0.64-0.689,0.522-1.146c-1.049-4.067-1.756-8.211-2.112-12.393c-0.039-0.464-0.398-0.842-0.86-0.905
	l-3.19-0.431c-0.319-4.973-0.166-9.959,0.454-14.904l3.209-0.234c0.465-0.034,0.848-0.391,0.915-0.852
	c0.611-4.152,1.568-8.247,2.863-12.243c0.144-0.447-0.046-0.939-0.453-1.173l-2.768-1.596c1.638-4.714,3.715-9.263,6.211-13.596
	l3.064,0.995c0.44,0.144,0.925-0.037,1.165-0.433c2.177-3.605,4.652-7.025,7.401-10.23c0.308-0.358,0.322-0.887,0.033-1.259
	l-1.935-2.509c3.347-3.739,7.037-7.161,11.032-10.224l2.446,2.075c0.352,0.299,0.867,0.317,1.238,0.043
	c3.414-2.509,7.031-4.736,10.817-6.658c0.419-0.213,0.635-0.695,0.513-1.15l-0.813-3.047c4.549-2.192,9.292-3.964,14.176-5.288
	l1.453,2.832c0.211,0.411,0.681,0.625,1.13,0.513c4.13-1.03,8.34-1.724,12.586-2.071c0.464-0.039,0.844-0.397,0.908-0.858
	l0.432-3.129C406.019,296.369,407.919,296.298,409.818,296.302z M122.115,297.016h9.474v0.81c0,0.043,0.004,0.087,0.01,0.13
	c0.238,1.798,1.718,2.993,3.431,3.674c1.714,0.681,3.786,0.954,5.808,0.913c2.021-0.041,3.978-0.389,5.487-1.116
	c0.754-0.364,1.412-0.826,1.869-1.477c0.417-0.594,0.599-1.376,0.472-2.147l0.009-0.786h62.217
	c12.183,0.001,21.85,7.822,21.85,17.168l-0.041,28.606c-0.001,0.109,0.016,0.217,0.049,0.32c-0.065,0.458-0.113,0.922-0.119,1.395
	c-0.1,7.404-0.184,13.618-0.332,24.554c-5.865,0.184-16.899,0.446-28.148,0.69c-0.138-0.06-0.288-0.088-0.438-0.082
	c-0.139,0.006-0.276,0.04-0.4,0.102c-14.8,0.32-29.837,0.599-34.783,0.6c-21.555-1.144-40.776,13.515-45.378,34.605
	c-0.002,0.003-0.003,0.006-0.004,0.01c-0.357,1.725-0.836,3.114-1.369,3.979c-0.533,0.864-0.979,1.143-1.526,1.143
	c-0.01,0-0.179-0.002-0.505-0.007c-10.058-0.139-18.099-8.348-18.028-18.406v-0.002c0.112-12.344,0.238-26.508,0.238-28.987v-48.521
	C101.96,304.788,110.904,297.017,122.115,297.016z M364.627,300.237v11.505c-0.751,0.502-1.495,1.015-2.229,1.543l-2.511-2.128
	c-0.355-0.301-0.875-0.317-1.246-0.037c-4.563,3.43-8.753,7.315-12.506,11.593c-0.314,0.358-0.332,0.892-0.041,1.268l1.988,2.579
	c-1.383,1.646-2.687,3.351-3.927,5.101l0.213-14.921C350.144,310.301,356.982,304.724,364.627,300.237z M342.334,319.094
	l-0.221,15.599c-0.225,0.351-0.457,0.696-0.676,1.051l-3.147-1.02c-0.133-0.043-0.274-0.058-0.413-0.043
	c0.786-3.786,1.264-7.464,1.428-11.728C340.27,321.635,341.288,320.353,342.334,319.094z M132.001,319.335
	c-1.299,0-2.374,1.073-2.374,2.374v2.751c0,1.3,1.075,2.373,2.374,2.373h70.149c1.3,0,2.372-1.075,2.372-2.373v-2.751
	c0-1.299-1.072-2.374-2.372-2.374H132.001z M132.001,321.332h70.149c0.219,0,0.375,0.158,0.375,0.377v2.751
	c0,0.219-0.156,0.376-0.375,0.376h-70.149c-0.218,0-0.377-0.159-0.377-0.376v-2.751
	C131.625,321.491,131.784,321.332,132.001,321.332z M337.121,326.103c-0.246,2.995-0.676,5.749-1.287,8.609
	c-0.168,0.07-0.314,0.184-0.421,0.33c0-0.003,0.008,0.002-0.203,0.078c-0.472,0.17-1.574,0.442-3.582,0.743
	C333.224,332.48,335.06,329.221,337.121,326.103z M132.001,330.017c-1.299,0-2.374,1.074-2.374,2.374v2.753
	c0,1.3,1.075,2.374,2.374,2.374h70.149c1.3,0,2.372-1.075,2.372-2.374v-2.753c0-1.299-1.072-2.374-2.372-2.374H132.001z
	 M132.001,332.014h70.149c0.219,0,0.375,0.158,0.375,0.377v2.753c0,0.219-0.156,0.377-0.375,0.377h-70.149
	c-0.218,0-0.377-0.159-0.377-0.377v-2.753C131.625,332.173,131.784,332.014,132.001,332.014z M284.14,333.165
	c8.131,3.11,25.93,5.596,34.775,5.726c-0.467,1.399-0.914,2.819-1.334,4.262c-0.469,1.613-0.285,3.133,0.411,4.284
	c0.696,1.152,1.894,1.904,3.242,2.044c2.698,0.284,5.776-1.787,7.485-6.603c0.584-1.646,1.238-3.26,1.932-4.855
	c2.935-0.382,4.405-0.726,5.236-1.025c0.097-0.035,0.164-0.069,0.246-0.103c-2.438,4.376-4.468,8.961-6.061,13.703
	c-0.121,0.359-0.028,0.755,0.238,1.023c-1.388,3.04-2.844,4.688-5.995,5.839c-1.759,0.641-4.101,1.084-7.18,1.402h-27.59
	c-17.624-1.44-33.509-4.846-33.509-4.846c-0.069-0.015-0.14-0.022-0.21-0.022c-0.53,0-0.973,0.421-0.998,0.951l-0.419,8.889
	c-0.238,0.324-0.258,0.76-0.051,1.105l-2.177,46.188c-5.78,2.734-11.863,2.967-18.458,0.63c0.014-1.047,0.635-46.953,0.909-67.225
	c0.064-4.701,3.723-8.541,8.416-8.831C257.506,334.81,283.309,333.217,284.14,333.165z M408.339,333.448
	c-23.082,0.451-42.039,18.71-42.739,41.718c-0.723,23.751,18.279,43.635,42.364,44.368c24.085,0.733,44.259-17.958,44.982-41.709
	c0.723-23.75-18.278-43.632-42.362-44.366C409.832,333.436,409.083,333.433,408.339,333.448z M408.378,335.444
	c0.711-0.014,1.426-0.011,2.145,0.011c23.021,0.701,41.116,19.657,40.426,42.311c-0.69,22.653-19.904,40.473-42.925,39.772
	c-23.021-0.701-41.117-19.656-40.427-42.31C368.266,353.281,386.321,335.872,408.378,335.444z M408.376,338.865
	c-19.984,0.391-36.378,16.183-36.984,36.109c-0.626,20.568,15.806,37.763,36.66,38.398c20.855,0.635,38.304-15.529,38.931-36.097
	c0.626-20.568-15.808-37.765-36.662-38.4C409.67,338.855,409.021,338.853,408.376,338.865z M132.001,340.094
	c-1.299,0-2.374,1.074-2.374,2.374v2.753c0,1.3,1.075,2.374,2.374,2.374h70.149c1.3,0,2.372-1.075,2.372-2.374v-2.753
	c0-1.299-1.072-2.374-2.372-2.374H132.001z M408.415,340.862c0.612-0.012,1.228-0.009,1.846,0.01
	c19.791,0.602,35.318,16.867,34.725,36.341c-0.592,19.472-17.079,34.764-36.871,34.161c-19.791-0.602-35.32-16.867-34.727-36.341
	C373.962,356.17,389.454,341.23,408.415,340.862z M132.001,342.092h70.149c0.219,0,0.375,0.158,0.375,0.377v2.753
	c0,0.219-0.156,0.377-0.375,0.377h-70.149c-0.218,0-0.377-0.16-0.377-0.377v-2.753C131.625,342.251,131.784,342.092,132.001,342.092
	z M332.026,352.649l1.339,0.771c-0.56,1.797-1.056,3.613-1.484,5.442h-5.757C328.95,357.542,330.69,355.488,332.026,352.649z
	 M256.77,356.171c1.19,0.253,13.055,2.744,27.467,4.227c-0.451,0.615-0.727,1.365-0.727,2.181v1.291l-27.083-0.423L256.77,356.171z
	 M287.225,360.86h2.018c6.188,0.502,12.651,0.773,18.824,0.561c3.663-0.125,6.69-0.297,9.273-0.561h14.113
	c-0.243,1.178-0.467,2.358-0.655,3.547l-3.295,0.242c-0.468,0.034-0.853,0.396-0.917,0.862c-0.19,1.402-0.344,2.808-0.46,4.216
	h-20.9c-0.121-0.047-0.25-0.071-0.379-0.069c-0.118,0.003-0.234,0.026-0.344,0.069h-17.278c-0.959,0-1.718-0.758-1.718-1.717v-5.43
	C285.507,361.62,286.267,360.86,287.225,360.86z M409.625,361.605c-8.111-0.247-14.919,6.056-15.164,14.071
	c-0.244,8.014,6.169,14.719,14.28,14.966c8.111,0.247,14.922-6.056,15.166-14.071C424.15,368.557,417.736,361.852,409.625,361.605z
	 M409.565,363.603c7.047,0.215,12.557,5.989,12.346,12.908c-0.211,6.919-6.061,12.35-13.109,12.135
	c-7.048-0.215-12.554-5.991-12.343-12.91C396.67,368.817,402.516,363.388,409.565,363.603z M256.333,365.443l27.176,0.425v2.141
	c0,2.039,1.676,3.714,3.715,3.714h16.638v49.131l-49.199-0.444c-0.195-1.953-0.57-5.22-0.652-8.092
	c0.079-0.136,0.123-0.29,0.131-0.446L256.333,365.443z M232.275,371.057c-0.246,18.205-0.547,40.553-0.552,40.956
	c-0.455,0.338-1.748,1.277-3.849,2.672c0.123-1.297,0.256-2.763,0.256-3.727c0-17.173-7.973-31.688-20.432-39.288
	C217.593,371.448,227.005,371.222,232.275,371.057z M305.86,371.724h15.014c-2.083,11.648,1.24,25.523,6.022,37.596
	c4.879,12.319,11.201,22.653,15.305,26.917l-124.308-0.781v-7.329v-6.051l0.415,0.004c-0.008,0.278,0.014,0.559,0.088,0.839
	c0.363,1.361,1.618,2.292,3.031,2.321c8.861,0.184,22.699,0.473,29.11,0.606c1.158,0.024,2.275-0.414,3.088-1.227
	c0,0,0.001,0,0.002,0c0.604-0.605,0.992-1.382,1.116-2.21l50.109,0.452c0.003,0,0.006,0,0.009,0c0.548,0,0.999-0.45,0.999-0.999
	V371.724z M203.709,371.759c13.489,6.613,22.422,21.304,22.422,39.198c0,1.058-0.285,3.765-0.388,5.103
	c-1.599,1.009-3.387,2.08-5.291,3.114c0.167-1.683,0.271-3.388,0.271-5.121c0-19.066-10.422-35.444-25.262-42.121
	C198.299,371.875,200.831,371.821,203.709,371.759z M170.238,377.995c-22.105,0-40.044,17.942-40.044,40.047
	c0,22.105,17.939,40.046,40.044,40.046s40.047-17.941,40.047-40.046C210.285,395.937,192.343,377.995,170.238,377.995z
	 M170.238,379.993c21.026,0,38.05,17.024,38.05,38.05s-17.023,38.049-38.05,38.049c-21.025,0-38.047-17.023-38.047-38.049
	S149.213,379.993,170.238,379.993z M170.238,400.601c-9.621,0-17.442,7.82-17.442,17.442c0,9.621,7.82,17.442,17.442,17.442
	c9.621,0,17.442-7.821,17.442-17.442C187.68,408.421,179.859,400.601,170.238,400.601z M170.238,402.598
	c8.542,0,15.444,6.903,15.444,15.444c0,8.542-6.903,15.444-15.444,15.444c-8.542,0-15.444-6.903-15.444-15.444
	C154.794,409.501,161.696,402.598,170.238,402.598z M170.238,408.976c-4.996,0-9.067,4.071-9.067,9.067
	c0,4.996,4.071,9.067,9.067,9.067c4.996,0,9.067-4.071,9.067-9.067C179.305,413.047,175.234,408.976,170.238,408.976z
	 M170.238,410.973c3.916,0,7.069,3.153,7.069,7.069s-3.153,7.069-7.069,7.069c-3.916,0-7.069-3.153-7.069-7.069
	S166.322,410.973,170.238,410.973z M252.064,413.415c0.165,3.324,0.626,7.059,0.72,8.285c0.042,0.552-0.158,1.094-0.571,1.508
	c-0.415,0.413-1.01,0.654-1.635,0.641c-6.41-0.133-20.246-0.42-29.108-0.604c-0.565-0.012-1.02-0.378-1.143-0.841
	c-0.123-0.462,0.076-0.93,0.553-1.185c6.063-3.232,11.017-6.851,12.011-7.59C239.602,416.042,246.052,415.963,252.064,413.415z
	 M457.196,452.596c-0.005,0-0.009,0-0.014,0c-0.548,0-0.999,0.451-0.999,0.999c0,0.548,0.45,1,0.999,1c0.005,0,0.009,0,0.014-0.001
	h64.882c0.005,0.001,0.009,0.001,0.014,0.001c0.548,0,0.999-0.451,0.999-1c0-0.547-0.45-0.999-0.999-0.999c-0.005,0-0.009,0-0.014,0
	H457.196z M72.475,452.951c-0.005,0-0.01,0-0.015,0c-0.547,0-0.999,0.45-0.999,0.999c0,0.548,0.451,0.999,0.999,0.999
	c0.005,0,0.01,0,0.015,0h72.538c0.005,0,0.01,0,0.015,0c0.547,0,0.999-0.45,0.999-0.999c0-0.548-0.451-0.999-0.999-0.999
	c-0.005,0-0.01,0-0.015,0H72.475z M198.938,454.326c-0.005,0-0.01,0-0.014,0c-0.548,0-1,0.45-1,0.999s0.451,0.999,1,0.999
	c0.004,0,0.009,0,0.014,0h156.501c0.005,0,0.01,0,0.014,0c0.548,0,0.999-0.45,0.999-0.999s-0.45-0.999-0.999-0.999
	c-0.004,0-0.009,0-0.014,0H198.938z"></path>
</svg>