<?xml version="1.0" standalone="no"?>
<svg version="1.1" id="Layer_1" xmlns="http://www.w3.org/2000/svg" xmlns:xlink="http://www.w3.org/1999/xlink" x="0px" y="0px" viewBox="0 0 595.28 595.28" enable-background="new 0 0 595.28 595.28" xml:space="preserve">
<path id="color_x5F_7" fill="#417505" d="M493.158,320.169l-8.353,27.05c-1.026,0.138-2.121,0.258-3.285,0.356l10.967-27.06
	c0.032-0.067,0.226-0.346,0.418-0.386C492.976,320.118,493.059,320.13,493.158,320.169z M110.685,390.116
	c-2.147,0.558-9.61,2.439-12.515,2.44c-0.354,0-0.645-0.026-0.887-0.08c-0.141-0.031-0.303-0.048-0.482-0.048
	c-1.382,0-3.062,0.874-3.307,1.526c-0.018,0.047-0.042,0.111,0.165,0.292c0.546,0.478,1.386,0.648,2.275,0.829
	c1.69,0.342,4.006,0.811,4.786,3.932c1.002,4.009,2.22,13.222,2.271,13.611c0.04,0.309-0.065,0.618-0.285,0.838l-2.724,2.724
	l1.397,2.596c0.143,0.265,0.158,0.58,0.043,0.857c-0.116,0.278-0.351,0.489-0.639,0.575c-0.035,0.011-3.534,1.106-3.534,3.041
	c0,3.857,1.63,20.388,9.553,31.554c0.057,0.019,0.106,0.051,0.158,0.079c1.351,0.324,4.692,1.335,5.752,3.592
	c0.621-0.018,1.597-0.037,2.827-0.037c4.998,0,13.782,0.334,19.554,2.435c-0.854-7.587-5.705-39.096-27.459-41.63
	c-0.335-0.039-0.628-0.244-0.779-0.546l-2.25-4.5c-0.139-0.278-0.14-0.604-0.004-0.884c0.135-0.279,0.394-0.48,0.698-0.543
	c0.462-0.096,11.295-2.429,9.963-10.864C114.115,394.638,111.603,391.175,110.685,390.116z"></path>
<path id="color_x5F_6" fill="#73b929" d="M158.31,486.103c-0.99-2.238-8.022-17.273-21.102-24.248
	c-0.085-1.024-0.32-3.402-0.864-6.584c2.091,1.443,5.967,3.137,11.852,1.959c3.414-0.683,5.913-2.245,8.119-3.624
	c3.724-2.328,6.664-4.165,12.81-1.68c4.395,1.779,8.269,4.664,12.016,7.453c4.957,3.69,9.652,7.177,14.424,6.868
	c7.437-0.499,29.687,5.203,35.93,12.407c0.192,0.221,0.482,0.555-0.308,1.401C224.301,487.447,172.988,496.655,158.31,486.103z
	 M83.907,496.411c0.103,1.617,0.156,2.429,3.647,4.757c5.857,3.905,35.118,11.736,53.896,4.003
	c8.276-3.41,13.346-9.422,15.069-17.871c0.011-0.056,0.044-0.1,0.064-0.151c-0.001-0.003-0.003-0.006-0.005-0.009
	c-0.073-0.172-7.448-17.282-21.309-24.031c-0.007-0.004-0.011-0.011-0.018-0.015c-5.367-2.299-14.58-2.656-19.712-2.656
	c-2.103,0-3.481,0.06-3.495,0.061c-0.492,0.031-0.939-0.328-1.029-0.82c-0.286-1.573-3.317-2.576-4.686-2.89
	c-1.143,0.196-5.424,1.064-9.348,3.612c-5.41,3.512-11.334,6.491-18.995,1.104c-0.077-0.054-0.145-0.118-0.204-0.191
	c-0.054-0.062-1.612-1.801-5.509-0.686c-1.48,0.423-2.692,1.79-3.24,3.658c-0.67,2.279-1.257,8.683,7.716,18.886
	C83.556,490.909,83.767,494.22,83.907,496.411z M85.087,455.435c-0.277,0.199-0.639,0.244-0.956,0.12
	c-0.283-0.112-28.334-10.996-41.512,3.104c-0.288,0.838-1.417,4.812,1.219,9.135c2.589,4.246,9.474,9.649,27.495,11.665
	c-5.258-7.766-5.005-13.053-4.218-15.734c0.743-2.53,2.466-4.406,4.609-5.018c4.656-1.328,6.971,0.675,7.5,1.226
	c6.603,4.59,11.652,2.05,16.668-1.207c3.262-2.118,6.673-3.15,8.688-3.619c-0.052-0.078-0.102-0.157-0.153-0.235
	c-0.125-0.01-0.249-0.038-0.368-0.097c-2.166-1.061-4.61-1.825-5.342-1.688c-0.072,0.259-0.243,0.498-0.474,0.628
	c-0.278,0.155-0.616,0.206-0.907,0.072c-3.124-1.418-8.863-3.125-10.962-1.679c-0.244,0.169-0.987,0.681-0.876,2.456
	C85.52,454.904,85.364,455.233,85.087,455.435z"></path>
<path id="color_x5F_5" fill="#ffffff" d="M243.65,367.482c-0.289-1.54,0.081-3.897,0.389-5.415c0.283,0.169,0.595,0.302,0.946,0.365
	c0.177,0.032,0.355,0.049,0.535,0.049c1.43,0,2.94-1.023,4.596-3.109c2.763-3.479,3.294-5.805,3.186-7.219
	c1.031-0.032,2.509-0.229,4.255-0.88c0.07,0.021,0.136,0.053,0.212,0.058c2.235,0.145,6.822,1.059,6.732,2.954
	c-0.028,0.586-0.008,1.292,0.013,2.039c0.138,4.896-0.165,9.346-5.31,10.018c-1.559,0.203-3.153,0.447-4.707,0.686
	C250.783,367.597,243.869,368.659,243.65,367.482z M292.585,170.948c-1.299-0.175-2.523-0.375-3.713-0.586
	c0.275,4.913,2.574,25.345,21.708,29.615c0.05,0.002,0.096-0.011,0.146-0.001c0.274,0.049,6.487,1.042,13.335-7.278
	c0.352-0.425,0.98-0.487,1.408-0.136c0.426,0.351,0.487,0.981,0.137,1.408c-4.528,5.5-8.917,7.3-11.818,7.843l0.662,1.104
	c1.634,0.177,7.966,0.191,14.57-8.549l-2.438-5.636c-0.165-0.383-0.076-0.828,0.225-1.117c0.039-0.039,4.205-4.215,4.36-13.131
	c0.002-0.1,0.022-0.195,0.052-0.287l0.031-2.282c0.008-0.553,0.451-0.98,1.014-0.991c0.553,0.008,0.994,0.458,0.986,1.011
	l-0.025,1.845c0.482,0.087,1.192,0.109,1.973-0.251c1.427-0.657,2.609-2.396,3.448-5.027c-8.393,2.33-18.273,3.611-28.722,3.611
	C304.26,172.11,298.431,171.735,292.585,170.948z M348.554,358.928c0.089-0.21,5.582-12.667,7.678-18.578
	c-0.587,0.018-1.177,0.029-1.771,0.029c-6.007,0-12.196-0.839-14.159-1.13c-4.459,5.893-10.982,5.398-12.743,5.138
	c-0.295,0.195-0.58,0.367-0.87,0.55c-2.531,13.957-14.64,80.166-17.145,83.423c-2.633,3.422-21.95,18.343-26.811,21.017
	c-2.955,1.625-4.142,3.471-3.995,4.497c0.124,0.863,1.294,1.248,1.98,1.4c0.375,0.084,0.775,0.181,1.201,0.283
	c4.498,1.09,12.029,2.914,21.98-4.605c5.711-4.314,10.344-5.282,13.727-5.989c3.442-0.719,5.521-1.152,6.964-4.372
	c1.771-3.951,1.666-7.252,1.564-10.445c-0.079-2.472-0.153-4.806,0.65-7.212C328.532,417.741,348.353,359.516,348.554,358.928z
	 M396.501,262.708c-0.316,0.061-9.056,0.126-10.559,0.04c-5.247-0.303-9.733-1.711-13.264-3.32
	c-1.976,6.85-10.34,28.689-42.233,59.54c-0.081,0.078-0.175,0.142-0.277,0.189c-0.069,0.032-5.426,2.546-12.835,8.391
	c-0.114,0.174-0.281,0.302-0.472,0.377c-2.131,1.702-4.413,3.659-6.792,5.925c-0.026,0.07-0.046,0.148-0.044,0.19
	c0.008-0.016,0.222,0.103,0.877,0.103c0.345,0,0.812-0.032,1.441-0.131l0.432-0.069c2.343-0.371,3.311-0.526,3.948,0.232
	c0.603,0.717,0.314,1.556-0.209,3.078c-0.184,0.532-0.405,1.178-0.641,1.954c-0.842,2.77-2.126,4.98-3.824,6.584
	c0.393,0.361,1.042,0.801,2.037,1.039c2.105,0.504,6.015,0.163,12.689-4.328c0.231-0.154,0.513-0.207,0.787-0.143
	c0.334,0.078,7.053,1.513,11.407-4.68c0.022-0.04,0.05-0.073,0.077-0.109c0.797-1.156,1.511-2.571,2.089-4.304
	c1.41-4.232,1.865-6.9,2.197-8.848c0.688-4.036,1.117-5.386,6.288-9.571c8.268-6.693,40.301-35.129,44.061-45.683L396.501,262.708z
	 M274.759,311.77c6.08-9.649,12.971-20.587,15.991-27.503c4.677-10.711,8.998-27.282,9.684-29.961
	c-2.718,0.464-6.846,0.812-12.746,0.443c-5.403-0.338-9.711-1.981-12.869-3.742c-2.173,9.941-9.115,40.859-13.169,49.182
	c-4.661,9.567-12.365,34.849-12.442,35.103c-0.029,0.095-0.072,0.187-0.128,0.269c-0.051,0.075-5.057,7.622-4.58,17.642
	c0.039,0.385,0.373,4.036-0.192,6.242c0.182,0.376,0.55,0.936,1.041,1.021c0.352,0.058,1.378-0.041,3.202-2.338
	c3.744-4.715,2.616-6.383,2.604-6.398c-0.302-0.315-0.345-0.767-0.135-1.149c0.208-0.383,0.664-0.562,1.09-0.479
	c0.169,0.029,4.282,0.727,9.356-3.403c0.338-0.413,2.516-3.341,0.458-7.868c-0.033-0.072-0.057-0.148-0.072-0.225
	c-0.058-0.298-0.451-3.14,3.417-11.045C266.863,324.304,270.522,318.495,274.759,311.77z M429.582,445.897
	c-5.007-11.596-4.008-30.589-3.581-38.699c0.054-1.015,0.144-2.576,0.26-4.572c0.867-14.973,3.413-58.984,1.582-73.383
	c-1.181,0.747-2.51,1.565-3.997,2.451c-1.952,1.163-4.964,1.607-8.426,1.607c-4.294,0-9.28-0.684-13.806-1.529
	c0.81,9.257,5.561,63.084,7.369,72.796c1.996,10.731,1.54,28.24,0.478,31.957c-0.882,3.086-0.746,17.962,2.741,28.923
	c2.014,6.33,7.862,7.808,10.283,8.148c4.478,0.627,8.314-0.726,9.432-2.4C434.444,467.405,434.484,457.25,429.582,445.897z"></path>
<path id="color_x5F_4" fill="#7ed321" d="M286.039,146.83c2.442,1.897,9.311,6.391,20.546,7.293
	c1.931,0.155,3.863,0.222,5.763,0.222c10.051,0,19.137-1.871,21.686-2.444c-0.153,0.563-0.303,0.831-0.389,0.947
	c-0.104,0.002-0.208,0.021-0.309,0.057c-0.087,0.031-8.871,3.102-19.591,3.102c-2.919,0-5.748-0.228-8.407-0.677
	c-14.319-2.419-19.216-6.034-19.401-7.463C285.948,147.723,285.98,147.357,286.039,146.83z M311.027,119.258
	c-4.046,0-7.968,0.735-11.343,2.125c-9.815,4.042-12.727,18.615-13.499,24.276c1.778,1.452,8.754,6.525,20.48,7.467
	c12.762,1.027,25.689-1.855,27.593-2.303c0.324-2.038,0.514-5.999-0.145-13.65C332.973,123.95,320.964,119.258,311.027,119.258z
	 M266.513,356.268c0.014,0.514,0.029,1.088,0.029,1.696l43.646-13.196c0.677-0.547,2.553-2.125,3.771-6.142
	c0.244-0.804,0.474-1.471,0.663-2.022c0.111-0.324,0.23-0.672,0.316-0.952c-0.46,0.046-1.143,0.154-1.85,0.267l-0.434,0.068
	c-1.446,0.228-3.463,0.386-4.312-0.872c-0.106-0.158-45.526,13.059-45.543,13.073c-0.726,0.596-1.438,1.102-2.128,1.536
	c2.583,0.537,5.962,1.786,5.826,4.656C266.475,354.891,266.493,355.528,266.513,356.268z M90.461,417.008
	c0.3,0.358,0.738,0.765,1.212,0.745c1.437-0.11,3.643-0.539,6.087-1.893c0.03-0.209,0.125-0.409,0.282-0.566l2.9-2.9
	c-0.269-1.986-1.317-9.515-2.163-12.9c-0.452-1.807-1.474-2.098-3.243-2.456c-0.182-0.037-0.372-0.079-0.561-0.12
	c-3.593,1.72-5.759,3.649-6.258,5.584C87.273,408.1,88.477,414.641,90.461,417.008z M242.565,354.141l-128.577,37.283
	c1.169,2.105,2.493,5.373,3.25,10.17c0.081,0.51,0.118,1,0.129,1.477l124.201-37.556c0.111-2.423,0.757-4.985,0.858-5.373
	c-0.051-0.119-0.191-0.757-0.124-0.959C242.706,357.971,242.656,355.581,242.565,354.141z M264.499,150.732
	c0,0.035-0.002,0.073-0.006,0.107c-0.013,0.136-1.057,14.168,28.358,18.126c29.777,4.009,60.055-3.118,67.497-15.882
	c1.039-1.781,1.189-3.53,0.459-5.348c-3.114-7.754-20.587-13.792-25.587-15.379c0.434,1.431,0.739,2.974,0.884,4.646
	c0.855,9.919,0.516,15.631-1.038,17.325c-0.358,0.391-0.81,0.672-1.269,0.672c-0.006,0-0.013,0-0.019,0
	c-1.492,0-9.794,3.073-20.034,3.073c-3.03,0-5.972-0.27-8.741-0.739c-12.799-2.163-20.872-5.772-21.068-9.393
	c-0.002-0.04-0.002-0.088,0.001-0.127c0.036-0.553,0.61-8.536,3.894-16.062C264.883,136.101,264.504,150.123,264.499,150.732z"></path>
<path id="color_x5F_3" fill="#417505" d="M350.879,316.402c3.218-2.605,18.062-15.372,29.851-27.502l-17.189,48.344
	c-5.558,2.124-17.773,0.73-22.038,0.153c0.57-1.02,1.089-2.175,1.529-3.498c1.46-4.378,1.93-7.133,2.272-9.145
	C345.904,321.243,346.065,320.3,350.879,316.402z M369.185,263.262c-16.919,3.154-27.336,3.833-33.117,3.833
	c-1.021,0-1.898-0.021-2.642-0.053l-15.179,57.27c5.845-4.366,10.048-6.475,10.927-6.896
	C355.281,292.133,365.422,272.749,369.185,263.262z M389.227,326.833c14.481,3.917,29.542,5.557,33.595,3.142
	c1.792-1.067,10.053-6.528,10.754-7.061c-0.732-4.095-4.767-26.879-5.075-33.367c-0.093-1.959-0.032-5.285,0.038-9.136
	c0.164-9.002,0.406-22.298-1.292-27.482c-8.982,5.18-18.535,8.346-28.535,9.466l-3.166,7.494c-0.901,2.532-3.234,5.924-6.384,9.726
	C388.395,290.944,386.968,320.809,389.227,326.833z"></path>
<path id="color_x5F_2" fill="#ff8700" d="M476.645,347.834c-10.478,0.228-16.04-2.332-18.379-3.824
	c7.851-2.633,15.822-3.628,23.739-2.959l-2.706,6.678C478.444,347.775,477.568,347.815,476.645,347.834z M497.871,345.655
	c-2.19,1.147-8.711,3.907-21.183,4.179c-0.46,0.01-0.912,0.015-1.354,0.015c-9.975,0-15.515-2.47-18.087-4.102l0.77,20.188
	c1.047,1.391,2.386,2.549,4.009,3.475c0.65-0.507,1.534-0.686,2.369-0.393c0.103,0.036,7.23,2.494,13.548,1.22
	c0.956-0.195,1.887,0.193,2.452,0.911c11.934-3.618,15.967-16.643,17.234-22.962L497.871,345.655z M493.84,388.059l2.915-30.663
	c-2.717,6.299-7.515,13.12-15.854,15.667c-0.154,1.009-0.911,1.862-1.969,2.075c-1.65,0.333-3.321,0.465-4.932,0.465
	c-5.913,0-11.004-1.775-11.273-1.871c-1.092-0.388-1.736-1.457-1.647-2.56c-1.09-0.616-2.073-1.326-2.943-2.133l0.696,18.257
	c0.002,0.037,0.001,0.075-0.002,0.112c-0.003,0.065-0.076,1.849,1.703,3.689c1.893,1.958,6.194,4.242,15.948,4.069
	C492.649,394.859,493.832,388.127,493.84,388.059z M487,346.887c4.662-0.808,7.656-1.939,9.235-2.667
	c-1.722-0.671-4.354-1.551-7.719-2.245L487,346.887z M339.99,171c-0.05-0.001-0.092-0.022-0.14-0.03
	c-0.984,2.205-2.278,3.684-3.868,4.396c-1.083,0.485-2.098,0.516-2.863,0.416c-0.109,1.881-0.386,3.546-0.751,5.011
	c0.026,0.049,0.063,0.089,0.082,0.144c0.112,0.342,2.695,8.428-1.475,14.151c0,0,0,0,0,0.001c-0.001,0-0.001,0-0.001,0.001
	c-6.376,8.718-12.802,9.86-15.732,9.86c-0.836,0-9.827-1.251-13.724-4.894c-1.331-1.245-1.867-2.563-2.052-3.046
	c-5.072-3.9-8.112-9.224-9.927-14.165c-2.124,1.533-8.516,6.996-10.303,18.311c-2.067,13.093-7.993,39.965-8.897,44.041
	c3.69,4.147,12.137,7.222,17.47,7.555c9.391,0.587,14.09-0.708,15.514-1.21L306,229.38c0-0.001,0-0.003,0-0.004
	c0-0.001,0-0.002,0-0.003l1.671-13c0.071-0.547,0.573-0.936,1.123-0.865c0.548,0.07,0.936,0.571,0.865,1.119l-1.586,12.371
	c2.756,1.769,12.683,8.291,17.83,13.689c0.188,0.013,0.374,0.061,0.536,0.184c2.381,1.814,14.311,11.039,15.352,14.508
	c0.158,0.529-0.142,1.086-0.671,1.245c-0.096,0.028-0.192,0.042-0.287,0.042c-0.431,0-0.828-0.28-0.958-0.713
	c-0.519-1.728-5.973-6.558-10.865-10.516c1.066,4.824,1.932,14.547,2.172,17.429c2.803,0.303,13.925,0.938,38.826-3.792
	c0.365-1.032,0.635-1.885,0.825-2.548c-1.972-1.027-3.566-2.068-4.716-2.904c-0.135-0.098-0.227-0.227-0.296-0.366
	c-0.196-0.209-0.311-0.492-0.271-0.799c1-7.928,3.191-29.57,1.349-34.438c-0.661-1.747-2.395-4.171-4.401-6.978
	c-4.739-6.628-11.23-15.707-9.648-24.716c0.097-0.544,0.614-0.908,1.158-0.812c0.544,0.096,0.907,0.614,0.812,1.158
	c-1.438,8.183,4.771,16.867,9.305,23.207c2.089,2.92,3.892,5.443,4.646,7.433c2.253,5.952-0.693,30.975-1.175,34.907
	c0.978,0.694,7.437,6.204,18.463,6.532c9.776,0.29,12.924-0.924,13.011-0.84c2.81-1.22,3.79-3.367,3.956-3.781
	c0.202-1.473,2.41-18.142,1.312-33.37c-0.196-2.713-0.663-5.331-1.39-7.76c-0.158-0.529,0.142-1.091,0.672-1.249
	c0.526-0.159,1.086,0.139,1.244,0.669c0.768,2.569,1.262,5.32,1.468,8.178c1.161,16.087-1.316,33.703-1.341,33.879
	c-0.009,0.059-0.022,0.285-0.041,0.341c-0.04,0.121-0.586,1.528-2.17,2.988c8.281-1.449,16.232-4.368,23.764-8.754
	c-1.635-4.78-10.833-30.761-21.272-41.866C392.044,195.114,363.41,171.236,339.99,171z M328.673,188.527l1.621,3.746
	c1.213-2.68,1.153-5.712,0.857-7.869C330.243,186.483,329.248,187.842,328.673,188.527z M311.893,202.544l-0.179-0.298
	c-2.407-0.414-4.579-1.065-6.544-1.899C307.355,201.563,310.07,202.215,311.893,202.544z"></path>
<path id="color_x5F_1" fill="#417505" d="M499.988,344.291c-0.015-0.351-0.204-0.675-0.521-0.842
	c-0.164-0.086-3.948-2.051-10.357-3.395l6.179-20.009c0.117-0.379-0.001-0.792-0.302-1.052c-1.034-0.894-1.929-0.94-2.492-0.821
	c-1.193,0.249-1.753,1.354-1.838,1.535l-7.862,19.398c-9.003-0.853-18.075,0.354-26.973,3.622c-0.008,0.003-0.015,0.01-0.023,0.013
	c-0.108,0.043-0.469,0.39-0.509,0.467c-0.02,0.037-0.219,0.908-0.247,1.002c-2.003,6.612-3.466,15.86,0.941,22.367
	c0.018,0.026,0.04,0.049,0.059,0.075l0.789,20.681c-0.014,0.448,0.025,2.79,2.192,5.081c2.992,3.163,8.487,4.764,16.347,4.764
	c0.377,0,0.76-0.004,1.147-0.011c18.172-0.346,19.271-8.543,19.31-8.905l3.82-40.183c0.38-1.881,0.508-3.092,0.514-3.152
	C500.185,344.69,500.11,344.474,499.988,344.291z M455.46,351.347l0.39,10.208C454.915,358.349,454.954,354.766,455.46,351.347z
	 M496.235,344.22c-1.579,0.728-4.573,1.859-9.235,2.667l1.517-4.912C491.881,342.669,494.514,343.549,496.235,344.22z
	 M492.486,320.516c0.032-0.067,0.226-0.346,0.418-0.386c0.071-0.012,0.154,0,0.254,0.039l-8.353,27.05
	c-1.026,0.138-2.121,0.258-3.285,0.356L492.486,320.516z M482.006,341.051l-2.706,6.678c-0.855,0.047-1.731,0.086-2.654,0.106
	c-10.478,0.228-16.04-2.332-18.379-3.824C466.117,341.377,474.089,340.382,482.006,341.051z M493.84,388.059
	c-0.008,0.068-1.19,6.801-17.357,7.108c-9.754,0.173-14.055-2.111-15.948-4.069c-1.779-1.841-1.706-3.624-1.703-3.689
	c0.003-0.037,0.004-0.075,0.002-0.112l-0.696-18.257c0.87,0.807,1.853,1.517,2.943,2.133c-0.09,1.103,0.555,2.172,1.647,2.56
	c0.27,0.096,5.36,1.871,11.273,1.871c1.61,0,3.281-0.132,4.932-0.465c1.058-0.213,1.815-1.066,1.969-2.075
	c8.34-2.547,13.138-9.368,15.854-15.667L493.84,388.059z M497.63,348.186c-1.268,6.318-5.301,19.344-17.234,22.962
	c-0.565-0.718-1.496-1.106-2.452-0.911c-6.318,1.274-13.445-1.184-13.548-1.22c-0.835-0.293-1.719-0.114-2.369,0.393
	c-1.623-0.926-2.962-2.084-4.009-3.475l-0.77-20.188c2.572,1.632,8.112,4.102,18.087,4.102c0.442,0,0.894-0.005,1.354-0.015
	c12.472-0.272,18.992-3.031,21.183-4.179L497.63,348.186z M427.999,407.303c0.053-1.013,0.144-2.57,0.259-4.562
	c0.98-16.939,3.535-61.04,1.443-74.693c3.732-2.44,5.493-3.854,5.595-3.936c0.284-0.229,0.42-0.596,0.355-0.955
	c-0.049-0.268-4.826-26.849-5.152-33.704c-0.09-1.893-0.03-5.189,0.039-9.004c0.189-10.342,0.443-24.462-1.84-29.267
	c-0.433-1.316-10.216-30.862-21.97-43.366c-13.339-14.191-42.17-38.182-66.154-38.792c0.074-0.237,0.153-0.465,0.223-0.714
	c0.041-0.15,0.039-0.298,0.013-0.442c10.133-3.132,17.823-7.869,21.267-13.776c1.351-2.317,1.548-4.707,0.586-7.102
	c-3.987-9.925-27.249-16.686-28.237-16.969c-0.024-0.007-0.049-0.001-0.073-0.006c-4.14-9.276-14.487-12.753-23.325-12.753
	c-4.305,0-8.49,0.789-12.104,2.277c-4.605,1.896-7.809,5.738-10.033,9.994c-25.224,4.187-26.343,19.947-26.389,21.129
	c-0.096,1.024-0.809,14.19,24.357,19.324c0.082,1.57,0.445,5.886,2.008,10.889c-1.814,1.173-9.535,6.866-11.604,19.971
	c-2.219,14.056-8.921,44.136-8.988,44.438c-0.069,0.31,0.013,0.633,0.22,0.873c0.13,0.149,1.672,1.876,4.517,3.747
	c-1.971,9.02-9.16,41.199-13.16,49.41c-4.601,9.442-11.83,33.01-12.516,35.258c-0.689,1.065-4.92,8.022-4.853,17.513
	l-129.607,37.582c-0.675-0.93-1.165-1.372-1.22-1.421c-0.251-0.217-0.592-0.298-0.913-0.21c-0.094,0.024-9.496,2.521-12.572,2.522
	c-0.277,0-0.409-0.023-0.453-0.033c-1.976-0.434-5.365,0.787-6.095,2.728c-0.336,0.896-0.074,1.807,0.72,2.502
	c0.071,0.062,0.152,0.101,0.227,0.157c-3.264,1.818-5.212,3.862-5.786,6.09c-1.673,6.484-0.189,13.506,2.146,16.292
	c0.992,1.184,1.979,1.463,2.691,1.463c0.072,0,0.142-0.003,0.208-0.008c1.598-0.124,4.027-0.592,6.709-2.036l0.545,1.013
	c-1.469,0.656-3.831,2.092-3.831,4.526c0,0.172,0.357,15.86,7.448,28.745c-1.803-0.693-3.966-1.268-5.092-0.608
	c-0.107,0.062-0.204,0.134-0.292,0.213c-2.417-0.995-8.906-3.325-12.075-1.14c-0.675,0.465-1.43,1.297-1.673,2.754
	c-5.925-2.091-30.021-9.438-42.554,4.235c-0.08,0.088-0.144,0.189-0.189,0.299c-0.089,0.218-2.131,5.402,1.28,11.041
	c4.205,6.951,14.526,11.268,30.675,12.831c0.033,0.003,0.065,0.005,0.097,0.005c0.008,0,0.016-0.004,0.024-0.005
	c0.712,0.93,1.476,1.88,2.349,2.873c6.354,7.225,6.54,10.126,6.663,12.046c0.14,2.182,0.419,3.55,4.534,6.293
	c4.209,2.806,20.054,7.575,35.846,7.574c6.988,0,13.969-0.935,19.921-3.387c8.674-3.573,14.076-9.816,16.088-18.549
	c5.276,3.137,13.744,4.391,23.143,4.391c20.872-0.001,46.28-6.154,51.206-11.441c1.818-1.951,0.855-3.5,0.356-4.075
	c-6.711-7.742-29.61-13.602-37.57-13.093c-4.054,0.27-8.245-2.861-13.1-6.477c-3.669-2.731-7.826-5.827-12.46-7.702
	c-7.092-2.871-10.749-0.584-14.621,1.837c-2.161,1.352-4.395,2.748-7.451,3.359c-7.992,1.597-11.626-2.714-11.776-2.898
	c-0.079-0.097-0.175-0.17-0.276-0.228c-2.598-12.535-9.499-32.361-27.346-34.817l-1.452-2.904c3.849-1.101,9.149-3.985,10.218-9.201
	l124.474-37.639c0.013,0.09,0.023,0.184,0.039,0.271c0.301,1.604,1.872,2.152,4.339,2.152c2.267,0,5.291-0.464,8.777-0.999
	c1.539-0.236,3.118-0.479,4.663-0.681c5.312-0.692,6.68-4.642,6.992-8.245l43.829-13.252c0.541,0.622,1.555,1.495,3.229,1.922
	c0.685,0.175,1.412,0.262,2.181,0.262c2.481,0,5.398-0.917,8.715-2.724c-5.782,31.8-14.683,78.218-16.451,80.853
	c-2.272,2.954-21.119,17.694-26.189,20.483c-3.4,1.87-5.32,4.373-5.011,6.532c0.126,0.882,0.752,2.453,3.526,3.07
	c0.363,0.08,0.751,0.175,1.164,0.274c1.985,0.48,4.517,1.094,7.552,1.094c4.371,0,9.785-1.272,16.103-6.047
	c5.354-4.045,9.555-4.922,12.931-5.627c3.642-0.761,6.519-1.361,8.379-5.512c1.96-4.372,1.843-8.067,1.739-11.327
	c-0.073-2.288-0.142-4.449,0.547-6.516c1.73-5.188,21.549-63.406,21.717-63.912c0.251-0.568,6.09-13.81,7.973-19.42
	c2.452-0.191,4.689-0.59,6.349-1.318c0.252-0.111,0.447-0.321,0.54-0.581l18.666-52.5c0.043-0.122,0.057-0.247,0.053-0.369
	c1.046-1.126,2.048-2.233,3.002-3.319c-0.572,9.459-2.198,40.355,0.608,45.967c0.125,0.249,0.348,0.436,0.616,0.513
	c0.465,0.135,5.289,1.52,11.351,2.747c0.666,7.648,5.556,63.404,7.444,73.559c2.021,10.865,1.394,27.992,0.521,31.043
	c-1.103,3.861-0.696,19.218,2.759,30.077c1.661,5.22,6.002,8.69,11.91,9.523c0.841,0.118,1.678,0.175,2.498,0.175
	c3.932,0,7.453-1.311,8.877-3.446c3.369-5.055,2.46-16.494-2.164-27.201C426.597,433.939,427.579,415.273,427.999,407.303z
	 M299.685,121.383c3.375-1.39,7.297-2.125,11.343-2.125c9.937,0,21.945,4.692,23.085,17.915c0.659,7.651,0.47,11.612,0.145,13.65
	c-1.903,0.447-14.831,3.33-27.593,2.303c-11.726-0.942-18.702-6.015-20.48-7.467C286.958,139.998,289.87,125.425,299.685,121.383z
	 M334.033,151.901c-0.153,0.563-0.303,0.831-0.389,0.947c-0.104,0.002-0.208,0.021-0.309,0.057
	c-0.087,0.031-8.871,3.102-19.591,3.102c-2.919,0-5.748-0.228-8.407-0.677c-14.319-2.419-19.216-6.034-19.401-7.463
	c0.011-0.143,0.043-0.509,0.102-1.036c2.442,1.897,9.311,6.391,20.546,7.293c1.931,0.155,3.863,0.222,5.763,0.222
	C322.398,154.345,331.484,152.475,334.033,151.901z M264.493,150.839c0.004-0.034,0.006-0.072,0.006-0.107
	c0.004-0.609,0.383-14.631,23.331-18.98c-3.284,7.525-3.858,15.509-3.894,16.062c-0.002,0.04-0.002,0.088-0.001,0.127
	c0.196,3.621,8.269,7.23,21.068,9.393c2.77,0.468,5.711,0.739,8.741,0.739c10.24,0,18.542-3.073,20.034-3.073
	c0.006,0,0.013,0,0.019,0c0.459,0,0.91-0.281,1.269-0.672c1.554-1.694,1.894-7.405,1.038-17.325
	c-0.145-1.672-0.45-3.215-0.884-4.646c5,1.587,22.473,7.625,25.587,15.379c0.73,1.818,0.58,3.567-0.459,5.348
	c-7.442,12.765-37.721,19.891-67.497,15.882C263.436,165.007,264.48,150.975,264.493,150.839z M332.264,170.922
	c-0.562,0.011-1.006,0.438-1.014,0.991l-0.031,2.282c-0.029,0.092-0.05,0.188-0.052,0.287c-0.155,8.916-4.321,13.092-4.36,13.131
	c-0.301,0.289-0.39,0.734-0.225,1.117l2.438,5.636c-6.604,8.74-12.936,8.726-14.57,8.549l-0.662-1.104
	c2.901-0.543,7.29-2.343,11.818-7.843c0.351-0.427,0.289-1.057-0.137-1.408c-0.428-0.351-1.057-0.289-1.408,0.136
	c-6.848,8.32-13.06,7.327-13.335,7.278c-0.05-0.01-0.096,0.003-0.146,0.001c-19.134-4.27-21.434-24.703-21.708-29.615
	c1.19,0.211,2.414,0.412,3.713,0.586c5.847,0.787,11.675,1.162,17.339,1.162c10.448,0,20.328-1.281,28.722-3.611
	c-0.839,2.631-2.021,4.37-3.448,5.027c-0.78,0.36-1.491,0.338-1.973,0.251l0.025-1.845
	C333.258,171.38,332.816,170.93,332.264,170.922z M330.294,192.273l-1.621-3.746c0.575-0.686,1.57-2.044,2.478-4.122
	C331.447,186.561,331.507,189.594,330.294,192.273z M311.893,202.544c-1.822-0.328-4.537-0.98-6.723-2.198
	c1.965,0.834,4.137,1.485,6.544,1.899L311.893,202.544z M270.341,245.197c0.904-4.076,6.829-30.948,8.897-44.041
	c1.787-11.315,8.179-16.778,10.303-18.311c1.814,4.941,4.855,10.265,9.927,14.165c0.185,0.483,0.721,1.802,2.052,3.046
	c3.896,3.643,12.888,4.894,13.724,4.894c2.931,0,9.356-1.143,15.732-9.86c0-0.001,0-0.001,0.001-0.001c0-0.001,0-0.001,0-0.001
	c4.17-5.723,1.587-13.809,1.475-14.151c-0.019-0.055-0.056-0.095-0.082-0.144c0.365-1.465,0.642-3.13,0.751-5.011
	c0.766,0.1,1.78,0.069,2.863-0.416c1.59-0.713,2.884-2.191,3.868-4.396c0.048,0.008,0.09,0.029,0.14,0.03
	c23.42,0.236,52.054,24.114,65.281,38.185c10.439,11.104,19.637,37.085,21.272,41.866c-7.531,4.387-15.483,7.305-23.764,8.754
	c1.584-1.46,2.13-2.868,2.17-2.988c0.019-0.057,0.032-0.282,0.041-0.341c0.024-0.176,2.502-17.791,1.341-33.879
	c-0.206-2.858-0.699-5.609-1.468-8.178c-0.158-0.529-0.718-0.828-1.244-0.669c-0.529,0.158-0.83,0.72-0.672,1.249
	c0.727,2.429,1.193,5.047,1.39,7.76c1.098,15.229-1.11,31.897-1.312,33.37c-0.166,0.414-1.146,2.561-3.956,3.781
	c-0.087-0.084-3.234,1.131-13.011,0.84c-11.026-0.328-17.485-5.838-18.463-6.532c0.482-3.932,3.428-28.955,1.175-34.907
	c-0.754-1.99-2.557-4.513-4.646-7.433c-4.533-6.34-10.742-15.024-9.305-23.207c0.095-0.544-0.269-1.062-0.812-1.158
	c-0.544-0.096-1.062,0.268-1.158,0.812c-1.582,9.009,4.909,18.087,9.648,24.716c2.007,2.807,3.74,5.231,4.401,6.978
	c1.843,4.868-0.349,26.509-1.349,34.438c-0.039,0.307,0.075,0.589,0.271,0.799c0.069,0.139,0.161,0.268,0.296,0.366
	c1.149,0.836,2.744,1.877,4.716,2.904c-0.19,0.663-0.46,1.516-0.825,2.548c-24.901,4.73-36.023,4.095-38.826,3.792
	c-0.24-2.882-1.105-12.605-2.172-17.429c4.892,3.957,10.347,8.788,10.865,10.516c0.13,0.434,0.527,0.713,0.958,0.713
	c0.095,0,0.191-0.014,0.287-0.042c0.529-0.159,0.829-0.716,0.671-1.245c-1.041-3.469-12.971-12.694-15.352-14.508
	c-0.162-0.123-0.349-0.171-0.536-0.184c-5.147-5.398-15.074-11.92-17.83-13.689l1.586-12.371c0.07-0.547-0.317-1.048-0.865-1.119
	c-0.55-0.071-1.052,0.317-1.123,0.865l-1.671,13c0,0.001,0,0.001,0,0.003c0,0.001,0,0.003,0,0.004l-2.676,22.162
	c-1.424,0.503-6.123,1.798-15.514,1.21C282.477,252.419,274.031,249.344,270.341,245.197z M263.814,338.16
	c-0.016-0.521,0.086-3.253,3.251-9.721c1.546-3.161,5.18-8.927,9.386-15.604c6.117-9.71,13.051-20.715,16.131-27.769
	c5.141-11.773,9.84-30.47,9.887-30.658c0.045-0.179,0.023-0.354-0.025-0.519c1.479-0.371,2.181-0.71,2.253-0.746
	c0.3-0.15,0.505-0.441,0.546-0.774l2.559-21.168c7.753,5.031,18.42,12.988,19.223,16.52c1.22,5.366,2.219,17.98,2.229,18.106
	c0.035,0.447,0.363,0.816,0.804,0.903c0.078,0.016,0.516,0.094,1.336,0.173l-15.748,59.421c-2.159,1.728-4.479,3.727-6.904,6.033
	l-44.507,13.392C264.878,344.02,265.242,341.409,263.814,338.16z M333.426,267.042c0.743,0.032,1.62,0.053,2.642,0.053
	c5.781,0,16.198-0.679,33.117-3.833c-3.763,9.487-13.903,28.871-40.011,54.154c-0.879,0.421-5.082,2.529-10.927,6.896
	L333.426,267.042z M244.499,353.202c-0.477-10.02,4.529-17.567,4.58-17.642c0.056-0.082,0.099-0.174,0.128-0.269
	c0.078-0.255,7.782-25.536,12.442-35.103c4.055-8.322,10.997-39.24,13.169-49.182c3.158,1.761,7.466,3.404,12.869,3.742
	c5.9,0.369,10.028,0.021,12.746-0.443c-0.686,2.679-5.006,19.25-9.684,29.961c-3.02,6.916-9.911,17.854-15.991,27.503
	c-4.237,6.726-7.897,12.534-9.491,15.791c-3.868,7.905-3.475,10.747-3.417,11.045c0.015,0.077,0.039,0.152,0.072,0.225
	c2.058,4.527-0.12,7.455-0.458,7.868c-5.074,4.13-9.187,3.433-9.356,3.403c-0.426-0.084-0.881,0.096-1.09,0.479
	c-0.209,0.383-0.167,0.834,0.135,1.149c0.012,0.016,1.14,1.684-2.604,6.398c-1.825,2.297-2.85,2.396-3.202,2.338
	c-0.491-0.086-0.859-0.645-1.041-1.021C244.872,357.238,244.538,353.587,244.499,353.202z M98.043,415.293
	c-0.157,0.157-0.253,0.357-0.282,0.566c-2.445,1.354-4.65,1.783-6.087,1.893c-0.474,0.02-0.912-0.387-1.212-0.745
	c-1.984-2.367-3.188-8.908-1.743-14.508c0.499-1.935,2.665-3.864,6.258-5.584c0.189,0.041,0.379,0.083,0.561,0.12
	c1.769,0.358,2.791,0.649,3.243,2.456c0.846,3.386,1.894,10.914,2.163,12.9L98.043,415.293z M43.838,467.793
	c-2.636-4.322-1.506-8.297-1.219-9.135c13.178-14.1,41.229-3.216,41.512-3.104c0.317,0.124,0.678,0.079,0.956-0.12
	c0.277-0.201,0.432-0.53,0.411-0.872c-0.111-1.775,0.632-2.287,0.876-2.456c2.1-1.446,7.838,0.261,10.962,1.679
	c0.291,0.134,0.629,0.083,0.907-0.072c0.231-0.13,0.401-0.369,0.474-0.628c0.732-0.138,3.177,0.627,5.342,1.688
	c0.119,0.059,0.243,0.087,0.368,0.097c0.052,0.078,0.101,0.157,0.153,0.235c-2.014,0.469-5.425,1.501-8.688,3.619
	c-5.016,3.257-10.065,5.797-16.668,1.207c-0.529-0.551-2.844-2.554-7.5-1.226c-2.144,0.612-3.867,2.488-4.609,5.018
	c-0.787,2.682-1.04,7.969,4.218,15.734C53.312,477.442,46.428,472.039,43.838,467.793z M148.196,457.23
	c3.414-0.683,5.913-2.245,8.119-3.624c3.724-2.328,6.664-4.165,12.81-1.68c4.395,1.779,8.269,4.664,12.016,7.453
	c4.957,3.69,9.652,7.177,14.424,6.868c7.437-0.499,29.687,5.203,35.93,12.407c0.192,0.221,0.482,0.555-0.308,1.401
	c-6.885,7.391-58.199,16.599-72.877,6.047c-0.99-2.238-8.022-17.273-21.102-24.248c-0.085-1.024-0.32-3.402-0.864-6.584
	C138.435,456.715,142.311,458.408,148.196,457.23z M135.27,463.108c13.86,6.749,21.236,23.859,21.309,24.031
	c0.001,0.003,0.004,0.006,0.005,0.009c-0.02,0.052-0.053,0.096-0.064,0.151c-1.723,8.449-6.793,14.461-15.069,17.871
	c-18.778,7.733-48.039-0.098-53.896-4.003c-3.492-2.328-3.544-3.14-3.647-4.757c-0.14-2.191-0.352-5.502-7.156-13.238
	c-8.974-10.203-8.386-16.607-7.716-18.886c0.548-1.868,1.76-3.235,3.24-3.658c3.896-1.115,5.455,0.624,5.509,0.686
	c0.059,0.073,0.127,0.138,0.204,0.191c7.661,5.387,13.585,2.407,18.995-1.104c3.924-2.548,8.205-3.416,9.348-3.612
	c1.369,0.313,4.4,1.316,4.686,2.89c0.09,0.492,0.537,0.852,1.029,0.82c0.014-0.001,1.392-0.061,3.495-0.061
	c5.133,0,14.346,0.357,19.712,2.656C135.259,463.098,135.263,463.104,135.27,463.108z M105.299,412.771
	c-0.304,0.062-0.562,0.264-0.698,0.543c-0.136,0.279-0.134,0.605,0.004,0.884l2.25,4.5c0.151,0.302,0.444,0.507,0.779,0.546
	c21.754,2.534,26.605,34.043,27.459,41.63c-5.771-2.101-14.555-2.435-19.554-2.435c-1.23,0-2.206,0.02-2.827,0.037
	c-1.06-2.257-4.401-3.268-5.752-3.592c-0.052-0.028-0.101-0.061-0.158-0.079c-7.922-11.166-9.553-27.696-9.553-31.554
	c0-1.935,3.498-3.03,3.534-3.041c0.289-0.086,0.523-0.297,0.639-0.575c0.115-0.277,0.1-0.593-0.043-0.857l-1.397-2.596l2.724-2.724
	c0.22-0.22,0.325-0.529,0.285-0.838c-0.052-0.39-1.269-9.603-2.271-13.611c-0.78-3.12-3.096-3.59-4.786-3.932
	c-0.889-0.181-1.729-0.351-2.275-0.829c-0.207-0.181-0.183-0.245-0.165-0.292c0.245-0.652,1.925-1.526,3.307-1.526
	c0.18,0,0.342,0.017,0.482,0.048c0.242,0.054,0.532,0.08,0.887,0.08c2.905-0.001,10.368-1.883,12.515-2.44
	c0.918,1.059,3.43,4.521,4.578,11.79C116.594,410.342,105.761,412.675,105.299,412.771z M117.238,401.594
	c-0.757-4.797-2.081-8.065-3.25-10.17l128.577-37.283c0.091,1.44,0.141,3.83-0.264,5.043c-0.067,0.202,0.073,0.84,0.124,0.959
	c-0.101,0.388-0.747,2.95-0.858,5.373l-124.201,37.556C117.356,402.594,117.318,402.103,117.238,401.594z M259.204,366.342
	c-1.559,0.203-3.153,0.447-4.707,0.686c-3.714,0.568-10.628,1.631-10.847,0.454c-0.289-1.54,0.081-3.897,0.389-5.415
	c0.283,0.169,0.595,0.302,0.946,0.365c0.177,0.032,0.355,0.049,0.535,0.049c1.43,0,2.94-1.023,4.596-3.109
	c2.763-3.479,3.294-5.805,3.186-7.219c1.031-0.032,2.509-0.229,4.255-0.88c0.07,0.021,0.136,0.053,0.212,0.058
	c2.235,0.145,6.822,1.059,6.732,2.954c-0.028,0.586-0.008,1.292,0.013,2.039C264.652,361.22,264.349,365.67,259.204,366.342z
	 M310.189,344.768l-43.646,13.196c0-0.608-0.015-1.183-0.029-1.696c-0.02-0.739-0.039-1.377-0.014-1.887
	c0.136-2.87-3.243-4.119-5.826-4.656c0.691-0.434,1.403-0.94,2.128-1.536c0.017-0.015,45.437-13.232,45.543-13.073
	c0.849,1.258,2.865,1.1,4.312,0.872l0.434-0.068c0.707-0.112,1.39-0.221,1.85-0.267c-0.086,0.28-0.205,0.628-0.316,0.952
	c-0.189,0.551-0.419,1.218-0.663,2.022C312.741,342.643,310.865,344.221,310.189,344.768z M348.554,358.928
	c-0.2,0.588-20.021,58.814-21.752,64.006c-0.803,2.406-0.729,4.74-0.65,7.212c0.102,3.193,0.206,6.494-1.564,10.445
	c-1.443,3.22-3.521,3.653-6.964,4.372c-3.383,0.707-8.016,1.675-13.727,5.989c-9.951,7.519-17.482,5.694-21.98,4.605
	c-0.425-0.103-0.826-0.199-1.201-0.283c-0.686-0.152-1.856-0.537-1.98-1.4c-0.147-1.026,1.04-2.872,3.995-4.497
	c4.861-2.674,24.178-17.595,26.811-21.017c2.505-3.257,14.613-69.466,17.145-83.423c0.29-0.183,0.575-0.354,0.87-0.55
	c1.761,0.26,8.284,0.755,12.743-5.138c1.963,0.291,8.152,1.13,14.159,1.13c0.595,0,1.185-0.012,1.771-0.029
	C354.136,346.261,348.643,358.718,348.554,358.928z M363.541,337.244c-5.558,2.124-17.773,0.73-22.038,0.153
	c0.57-1.02,1.089-2.175,1.529-3.498c1.46-4.378,1.93-7.133,2.272-9.145c0.6-3.512,0.761-4.455,5.574-8.353
	c3.218-2.605,18.062-15.372,29.851-27.502L363.541,337.244z M349.621,314.848c-5.171,4.186-5.6,5.535-6.288,9.571
	c-0.332,1.947-0.787,4.615-2.197,8.848c-0.578,1.732-1.292,3.147-2.089,4.304c-0.027,0.036-0.055,0.069-0.077,0.109
	c-4.354,6.192-11.073,4.758-11.407,4.68c-0.274-0.064-0.556-0.011-0.787,0.143c-6.674,4.491-10.583,4.832-12.689,4.328
	c-0.995-0.238-1.645-0.678-2.037-1.039c1.698-1.603,2.982-3.814,3.824-6.584c0.235-0.776,0.457-1.422,0.641-1.954
	c0.523-1.522,0.812-2.361,0.209-3.078c-0.637-0.759-1.605-0.604-3.948-0.232l-0.432,0.069c-0.629,0.099-1.097,0.131-1.441,0.131
	c-0.655,0-0.869-0.118-0.877-0.103c-0.002-0.042,0.018-0.12,0.044-0.19c2.379-2.266,4.661-4.223,6.792-5.925
	c0.19-0.075,0.357-0.203,0.472-0.377c7.409-5.845,12.766-8.358,12.835-8.391c0.102-0.047,0.196-0.111,0.277-0.189
	c31.894-30.851,40.258-52.69,42.233-59.54c3.53,1.608,8.017,3.017,13.264,3.32c1.503,0.086,10.243,0.021,10.559-0.04l-2.818,6.456
	C389.922,279.719,357.889,308.154,349.621,314.848z M389.227,326.833c-2.26-6.024-0.832-35.889-0.065-47.218
	c3.149-3.802,5.482-7.194,6.384-9.726l3.166-7.494c10-1.121,19.554-4.286,28.535-9.466c1.698,5.185,1.456,18.48,1.292,27.482
	c-0.07,3.851-0.131,7.177-0.038,9.136c0.309,6.487,4.343,29.272,5.075,33.367c-0.701,0.532-8.962,5.993-10.754,7.061
	C418.77,332.39,403.708,330.75,389.227,326.833z M431.918,471.195c-1.117,1.675-4.954,3.027-9.432,2.4
	c-2.421-0.341-8.27-1.818-10.283-8.148c-3.487-10.961-3.623-25.837-2.741-28.923c1.061-3.717,1.518-21.226-0.478-31.957
	c-1.808-9.712-6.56-63.539-7.369-72.796c4.525,0.846,9.512,1.529,13.806,1.529c3.462,0,6.474-0.444,8.426-1.607
	c1.487-0.886,2.816-1.704,3.997-2.451c1.831,14.398-0.715,58.41-1.582,73.383c-0.115,1.996-0.206,3.558-0.26,4.572
	c-0.427,8.11-1.426,27.104,3.581,38.699C434.484,457.25,434.444,467.405,431.918,471.195z"></path>
</svg>